<svg xmlns="http://www.w3.org/2000/svg" xmlns:xlink="http://www.w3.org/1999/xlink" version="1.1" width="343.71pt" height="156.26pt" viewBox="0 0 343.71 156.26">
<defs>
<clipPath id="clip_1">
<path transform="matrix(1,0,0,-1,.0007972717,156.26)" d="M0 0H2384V3370H0Z"/>
</clipPath>
<clipPath id="clip_2">
<path transform="matrix(1,0,0,-1,.0007972717,156.26)" d="M0 0H2384V3370H0Z"/>
</clipPath>
<path id="font_3_250" d="M.6519928 .2579193H.6269989C.60198977 .10397339 .57899478 .0309906 .40699769 .0309906H.27398683C.22698975 .0309906 .22499085 .037994386 .22499085 .07098389V.33789063H.31498719C.4119873 .33789063 .4229889 .30589295 .4229889 .220932H.44799806V.48606874H.4229889C.4229889 .39994813 .4119873 .36888124 .31498719 .36888124H.22499085V.6087799C.22499085 .6416931 .22698975 .64868167 .27398683 .64868167H.40299989C.55599978 .64868167 .58299258 .59381106 .598999 .45507813H.6239929L.59599307 .6796875H.032989503V.64868167H.056991579C.13398743 .64868167 .13598633 .6377106 .13598633 .6017914V.07797241C.13598633 .041992189 .13398743 .0309906 .056991579 .0309906H.032989503V0H.6100006L.6519928 .2579193M.47698976 .867157C.48098756 .88916018 .46398927 .9091797 .44198609 .9091797 .42999269 .9091797 .41999818 .9011688 .41600038 .897171L.2709961 .76708987 .2849884 .74609377 .45498658 .84013369C.46598817 .84513857 .47499085 .8551483 .47698976 .867157Z"/>
<path id="font_3_72" d="M.25498963 0V.0309906C.18798828 .0309906 .1769867 .0309906 .1769867 .07601929V.69433596L.032989503 .6826172V.6516113C.102996829 .6516113 .11099243 .64460757 .11099243 .5956421V.07595825C.11099243 .0309906 .099990848 .0309906 .032989503 .0309906V0L.14399719 .0029907227 .25498963 0Z"/>
<path id="font_3_50" d="M.4149933 .11933899C.4149933 .12934876 .40699769 .13134766 .4019928 .13134766 .3929901 .13134766 .3909912 .12535095 .3889923 .11734009 .35398866 .014251709 .2639923 .014251709 .2539978 .014251709 .20399475 .014251709 .1639862 .044281007 .14099121 .08131409 .11099243 .12934876 .11099243 .19540406 .11099243 .23144531H.3899994C.4119873 .23144531 .4149933 .23144531 .4149933 .2524414 .4149933 .35131837 .36099244 .4482422 .23599243 .4482422 .11999512 .4482422 .027999878 .34532167 .027999878 .22042847 .027999878 .08631897 .1329956-.0107421879 .24798584-.0107421879 .36999513-.0107421879 .4149933 .10032654 .4149933 .11933899M.34899903 .2524414H.11199951C.117996219 .40126039 .20199585 .426239 .23599243 .426239 .33898927 .426239 .34899903 .2913971 .34899903 .2524414Z"/>
<path id="font_3_75" d="M.8129883 0V.0309906C.7609863 .0309906 .73599246 .0309906 .7350006 .061019899V.25221253C.7350006 .3383026 .7350006 .36932374 .70399478 .405365 .6899872 .42237855 .6569977 .4423828 .598999 .4423828 .5149994 .4423828 .47099305 .38233949 .45399476 .34429933 .43998719 .43138124 .3659973 .4423828 .32099916 .4423828 .24798584 .4423828 .20098877 .39935304 .17298889 .33729554V.4423828L.03199768 .43066407V.3996582C.101989749 .3996582 .10998535 .39266969 .10998535 .34370423V.07595825C.10998535 .0309906 .09899902 .0309906 .03199768 .0309906V0L.14498902 .0029907227 .25698854 0V.0309906C.18998719 .0309906 .1789856 .0309906 .1789856 .07595825V.25978089C.1789856 .36431886 .25 .42037965 .31399537 .42037965 .3769989 .42037965 .3880005 .36631776 .3880005 .30926515V.076034549C.3880005 .0309906 .3769989 .0309906 .30999757 .0309906V0L.4229889 .0029907227 .5349884 0V.0309906C.46798707 .0309906 .45700074 .0309906 .45700074 .076034549V.2602234C.45700074 .36431886 .5279999 .42037965 .59199526 .42037965 .6549988 .42037965 .66600039 .36631776 .66600039 .30926515V.076034549C.66600039 .0309906 .6549988 .0309906 .58799746 .0309906V0L.70098879 .0029907227 .8129883 0Z"/>
<path id="font_3_77" d="M.5349884 0V.0309906C.48298646 .0309906 .45799256 .0309906 .45700074 .061019899V.25221253C.45700074 .3383026 .45700074 .36932374 .42599488 .405365 .4119873 .42237855 .3789978 .4423828 .32099916 .4423828 .24798584 .4423828 .20098877 .39935304 .17298889 .33729554V.4423828L.03199768 .43066407V.3996582C.101989749 .3996582 .10998535 .39266969 .10998535 .34370423V.07595825C.10998535 .0309906 .09899902 .0309906 .03199768 .0309906V0L.14498902 .0029907227 .25698854 0V.0309906C.18998719 .0309906 .1789856 .0309906 .1789856 .07595825V.25978089C.1789856 .36431886 .25 .42037965 .31399537 .42037965 .3769989 .42037965 .3880005 .36631776 .3880005 .30926515V.076034549C.3880005 .0309906 .3769989 .0309906 .30999757 .0309906V0L.4229889 .0029907227 .5349884 0Z"/>
<path id="font_3_105" d="M.33198548 .12385559V.18066406H.30699159V.12585449C.30699159 .052108766 .2769928 .014251709 .23999024 .014251709 .17298889 .014251709 .17298889 .10491943 .17298889 .12187195V.3996582H.31599427V.43066407H.17298889V.6142578H.147995C.14698792 .5324249 .116989139 .42565919 .018997193 .42166139V.3996582H.10398865V.12408447C.10398865 .0012512207 .19699097-.0107421879 .23298645-.0107421879 .3039856-.0107421879 .33198548 .060180665 .33198548 .12408447V.12385559Z"/>
<path id="font_3_98" d="M.3600006 .12823487C.3600006 .18122864 .32998658 .21122742 .31799317 .22323609 .2849884 .25523377 .24598694 .26322938 .20399475 .27124024 .147995 .28224183 .08099365 .29522706 .08099365 .35324098 .08099365 .38822938 .10699463 .42922975 .19299317 .42922975 .30299378 .42922975 .30799867 .3392334 .30999757 .30822755 .31098939 .2992401 .32199098 .2992401 .32199098 .2992401 .33499146 .2992401 .33499146 .30422975 .33499146 .32322694V.4242401C.33499146 .4412384 .33499146 .4482422 .32398988 .4482422 .31900025 .4482422 .31698609 .4482422 .3039856 .43623353 .30099488 .43223573 .29100038 .42323304 .2869873 .42022706 .24899292 .4482422 .20799256 .4482422 .19299317 .4482422 .070999149 .4482422 .032989503 .38124085 .032989503 .3252411 .032989503 .29023744 .04899597 .26223756 .07598877 .24023438 .10798645 .2142334 .13598633 .2082367 .20799256 .19422913 .22999573 .19021607 .31199647 .17422486 .31199647 .10221863 .31199647 .051223756 .2769928 .011245728 .19898987 .011245728 .114990238 .011245728 .07899475 .068222049 .05999756 .1532135 .056991579 .16621399 .055999757 .17021179 .04598999 .17021179 .032989503 .17021179 .032989503 .16322327 .032989503 .1452179V.013214111C.032989503-.003753662 .032989503-.0107421879 .04399109-.0107421879 .04899597-.0107421879 .049987794-.009750366 .068984989 .009246826 .070999149 .011245728 .070999149 .013214111 .08898926 .032226564 .1329956-.009750366 .17799378-.0107421879 .19898987-.0107421879 .31399537-.0107421879 .3600006 .05621338 .3600006 .1282196V.12823487Z"/>
<path id="font_3_27" d="M.71699526 0V.0309906H.69898989C.6389923 .0309906 .625 .037979127 .6139984 .07095337L.397995 .6958008C.3929901 .7088165 .3909912 .7158203 .375 .7158203 .35899354 .7158203 .35598756 .70980837 .35099793 .6958008L.14399719 .09791565C.12599182 .04698181 .085998538 .03199768 .03199768 .0309906V0L.13398743 .0029907227 .24899292 0V.0309906C.19898987 .0309906 .17399597 .05596924 .17399597 .0819397 .17399597 .08493042 .1749878 .09492493 .17599488 .09692383L.22200012 .2277832H.46899415L.5219879 .07495117C.522995 .07095337 .5249939 .064956668 .5249939 .060958864 .5249939 .0309906 .46899415 .0309906 .44198609 .0309906V0C.47799684 .0029907227 .5479889 .0029907227 .58599856 .0029907227L.71699526 0M.45799256 .25878907H.23298645L.34498597 .58380129 .45799256 .25878907Z"/>
<path id="font_3_84" d="M.5209961 .21636963C.5209961 .34336854 .42399598 .4423828 .31199647 .4423828 .23399353 .4423828 .19198609 .39837647 .17199707 .3763733V.4423828L.027999878 .43066407V.3996582C.09899902 .3996582 .10598755 .3936615 .10598755 .34973146V-.117996219C.10598755-.16308594 .09498596-.16308594 .027999878-.16308594V-.1940918L.13999939-.19110108 .25299073-.1940918V-.16308594C.18598938-.16308594 .1749878-.16308594 .1749878-.117996219V.050186159 .059173585C.17999268 .04319763 .22200012-.0107421879 .2979889-.0107421879 .4169922-.0107421879 .5209961 .087127689 .5209961 .21594239V.21636963M.43798829 .21594239C.43798829 .09512329 .36799623 .011245728 .2939911 .011245728 .2539978 .011245728 .21598816 .031219483 .18899536 .07215881 .1749878 .09312439 .1749878 .09411621 .1749878 .114089969V.33674623C.20399475 .38838197 .25299073 .41737367 .3039856 .41737367 .3769989 .41737367 .43798829 .32937623 .43798829 .21636963V.21594239Z"/>
<path id="font_3_66" d="M.24699402 0V.0309906C.18099976 .0309906 .1769867 .035995485 .1769867 .075042728V.4423828L.036987306 .43066407V.3996582C.101989749 .3996582 .11099243 .3936615 .11099243 .3447113V.07595825C.11099243 .0309906 .099990848 .0309906 .032989503 .0309906V0L.14299011 .0029907227C.17799378 .0029907227 .21299744 .0009918213 .24699402 0M.19198609 .603775C.19198609 .6307678 .16899109 .6567688 .13899231 .6567688 .10499573 .6567688 .084991458 .6287689 .084991458 .603775 .084991458 .57676699 .10798645 .55078127 .13798523 .55078127 .17199707 .55078127 .19198609 .5787811 .19198609 .603775Z"/>
<path id="font_3_109" d="M.5349884 0V.0309906C.46499635 .0309906 .45700074 .037994386 .45700074 .08705139V.4423828L.30999757 .43066407V.3996582C.37998963 .3996582 .3880005 .39266969 .3880005 .34373475V.16601563C.3880005 .07910156 .33999635 .011245728 .2669983 .011245728 .18299866 .011245728 .1789856 .058135988 .1789856 .11009216V.4423828L.03199768 .43066407V.3996582C.10998535 .3996582 .10998535 .39666749 .10998535 .3078003V.15802002C.10998535 .080093387 .10998535-.0107421879 .2619934-.0107421879 .31799317-.0107421879 .3619995 .017242432 .3909912 .07910156V-.0107421879L.5349884 0Z"/>
<path id="font_3_47" d="M.5269928 0V.0309906C.45700074 .0309906 .44898988 .038009645 .44898988 .0871582V.69433596L.30499269 .6826172V.6516113C.375 .6516113 .3829956 .64463809 .3829956 .59580996V.38035584C.35398866 .41636659 .31098939 .4423828 .25698854 .4423828 .13899231 .4423828 .033996583 .3443451 .033996583 .21531677 .033996583 .088272098 .13198853-.0107421879 .24598694-.0107421879 .30999757-.0107421879 .35499574 .023254395 .37998963 .055267335V-.0107421879L.5269928 0M.37998963 .117996219C.37998963 .099990848 .37998963 .09799194 .36898805 .08099365 .33898927 .033218385 .2939911 .011245728 .25099183 .011245728 .20599365 .011245728 .16999817 .037216188 .1459961 .075164798 .11999512 .1161499 .116989139 .17320252 .116989139 .21421814 .116989139 .25125123 .11898804 .31129457 .147995 .35632325 .16899109 .38734437 .20698548 .42037965 .26098634 .42037965 .29599 .42037965 .33799745 .405365 .36898805 .3603363 .37998963 .34332276 .37998963 .34132386 .37998963 .32330323V.117996219Z"/>
<path id="font_4_2" d="M.1269989 .07699585 .23298645 .18003845C.3889923 .31811524 .44898988 .3721466 .44898988 .47216798 .44898988 .5860901 .35899354 .6660156 .23699951 .6660156 .12399292 .6660156 .049987794 .57411196 .049987794 .48516847 .049987794 .4291687 .099990848 .4291687 .102996829 .4291687 .11999512 .4291687 .15499878 .44117738 .15499878 .48217774 .15499878 .5081787 .13699341 .5341797 .101989749 .5341797 .09399414 .5341797 .09199524 .5341797 .08898926 .5331726 .11199951 .59806826 .1659851 .63500979 .22399903 .63500979 .31498719 .63500979 .35798646 .5541382 .35798646 .47216798 .35798646 .39215089 .30799867 .31311036 .25299073 .25108338L.06098938 .036987306C.049987794 .025985718 .049987794 .023986817 .049987794 0H.42099L.44898988 .17404175H.42399598C.4189911 .14402771 .4119873 .1000061 .4019928 .084991458 .394989 .07699585 .32899476 .07699585 .30699159 .07699585H.1269989Z"/>
<path id="font_5_1" d="M.45498658 .5001831C.45498658 .56614688 .43699647 .7050781 .33499146 .7050781 .19599915 .7050781 .041992189 .42323304 .041992189 .19425965 .041992189 .100250247 .070999149-.0107421879 .1619873-.0107421879 .30299378-.0107421879 .45498658 .27627564 .45498658 .5001831M.147995 .36328126C.16499329 .42723084 .18499756 .5071869 .22499085 .57814028 .2519989 .6271057 .2889862 .68307498 .33399964 .68307498 .3829956 .68307498 .3889923 .6191101 .3889923 .56214907 .3889923 .5131836 .3809967 .46220399 .35699464 .36328126H.147995M.34799195 .3312683C.33699037 .28527833 .31599427 .2002716 .27799989 .12826538 .24299622 .060256959 .20498657 .011245728 .1619873 .011245728 .1289978 .011245728 .10798645 .040252687 .10798645 .133255 .10798645 .17526245 .11399841 .23326111 .13999939 .3312683H.34799195Z"/>
<path id="font_6_2" d="M.15899658 .71398928C.15899658 .7319946 .15899658 .75 .13899231 .75 .11898804 .75 .11898804 .7319946 .11898804 .71398928V-.21400452C.11898804-.23200989 .11898804-.25 .13899231-.25 .15899658-.25 .15899658-.23200989 .15899658-.21400452V.71398928Z"/>
<path id="font_5_5" d="M.46199037 .33935548C.46699525 .36135865 .47698976 .3983612 .47698976 .40437318 .47698976 .42237855 .46299745 .43138124 .44799806 .43138124 .43598939 .43138124 .41799928 .42337037 .41099549 .4033661 .4079895 .3963623 .36099244 .205307 .35398866 .17930603 .34700013 .14929199 .34498597 .13128662 .34498597 .11328125 .34498597 .10227966 .34498597 .10028076 .34599305 .09527588 .32299806 .042266847 .29299928 .011245728 .2539978 .011245728 .17399597 .011245728 .17399597 .08526611 .17399597 .10227966 .17399597 .1342926 .1789856 .17329407 .22599793 .29634095 .23699951 .32633973 .24299622 .3403473 .24299622 .36035157 .24299622 .405365 .20999146 .4423828 .16099549 .4423828 .06599426 .4423828 .0289917 .29733277 .0289917 .28833009 .0289917 .27833558 .038986207 .27833558 .040985109 .27833558 .050994874 .27833558 .051986696 .28033448 .056991579 .29634095 .083999637 .38935853 .12298584 .42037965 .1579895 .42037965 .16699219 .42037965 .18299866 .41937257 .18299866 .38735963 .18299866 .36235047 .17199707 .3343506 .16499329 .31733705 .12098694 .1993103 .10899353 .1532898 .10899353 .11528015 .10899353 .024261475 .17599488-.0107421879 .25099183-.0107421879 .2679901-.0107421879 .31498719-.0107421879 .35499574 .059265138 .3809967-.0047454836 .44999696-.0107421879 .47999574-.0107421879 .5549927-.0107421879 .598999 .052261354 .625 .11227417 .6589966 .19030762 .69099429 .32434083 .69099429 .37236024 .69099429 .42736817 .6639862 .4423828 .6469879 .4423828 .621994 .4423828 .5970001 .41636659 .5970001 .3943634 .5970001 .38136292 .6029968 .3753662 .6119995 .36735536 .6230011 .35635377 .647995 .33035279 .647995 .28233338 .647995 .24832154 .61898806 .15029907 .59298709 .09927368 .5669861 .04626465 .5319977 .011245728 .48298646 .011245728 .43598939 .011245728 .40899659 .041259767 .40899659 .09828186 .40899659 .12628174 .41600038 .1572876 .41999818 .17129517L.46199037 .33935548Z"/>
<path id="font_6_1" d="M.272995 .23298645C.27799989 .24499512 .27799989 .24699402 .27799989 .25 .27799989 .25299073 .27799989 .25498963 .272995 .2669983L.09799194 .72698977C.09199524 .74398806 .085998538 .75 .07499695 .75 .06399536 .75 .054992677 .7409973 .054992677 .7299957 .054992677 .72698977 .054992677 .72499087 .05999756 .71398928L.23699951 .25 .05999756-.21200562C.054992677-.2230072 .054992677-.2250061 .054992677-.23001099 .054992677-.24101258 .06399536-.25 .07499695-.25 .08799744-.25 .09199524-.2400055 .09599304-.23001099L.272995 .23298645Z"/>
<path id="font_5_4" d="M.3909912 .37405396C.36299134 .37304688 .34298707 .3510437 .34298707 .32904054 .34298707 .31503297 .35198976 .30003358 .37399293 .30003358 .3959961 .30003358 .41999818 .31703187 .41999818 .35603334 .41999818 .40124513 .3769989 .4423828 .30099488 .4423828 .16899109 .4423828 .13198853 .3400421 .13198853 .29605104 .13198853 .21820069 .20599365 .20323181 .23498535 .19725037 .2869873 .18727112 .33898927 .17628479 .33898927 .12133789 .33898927 .095336917 .31599427 .011245728 .19599915 .011245728 .18199158 .011245728 .10499573 .011245728 .08198547 .064331058 .11999512 .059326173 .14498902 .08934021 .14498902 .11734009 .14498902 .14033509 .1289978 .15234375 .10798645 .15234375 .08198547 .15234375 .051986696 .1313324 .051986696 .08633423 .051986696 .029281617 .10899353-.0107421879 .19499207-.0107421879 .35699464-.0107421879 .3959961 .1103363 .3959961 .15533448 .3959961 .19125366 .3769989 .21620178 .36499024 .22817993 .33799745 .25613404 .30899049 .26112367 .2649994 .27009584 .22898865 .27807618 .18899536 .2850647 .18899536 .33003236 .18899536 .3590393 .21299744 .42037965 .30099488 .42037965 .32598878 .42037965 .37599183 .41333009 .3909912 .37405396Z"/>
<path id="font_7_1" d="M.2899933 .4720459C.2979889 .4890442 .29899598 .49705506 .29899598 .5040436 .29899598 .53504946 .2709961 .5590515 .23999024 .5590515 .20199585 .5590515 .18998719 .52804568 .18499756 .51205447L.052993776 .07901001C.051986696 .07701111 .04798889 .06401062 .04798889 .06300354 .04798889 .05101013 .07899475 .041015626 .08699036 .041015626 .09399414 .041015626 .09498596 .043014528 .101989749 .058013917L.2899933 .4720459Z"/>
<path id="font_3_121" d="M.45999146 .31976319C.45999146 .39982606 .45498658 .47988893 .41999818 .5539398 .37399293 .65000918 .2919922 .6660156 .25 .6660156 .18998719 .6660156 .116989139 .64001467 .07598877 .54693606 .04399109 .47789 .038986207 .39982606 .038986207 .31976319 .038986207 .24472046 .042999269 .15464783 .083999637 .07859802 .1269989-.0024719239 .19999695-.022460938 .24899292-.022460938 .30299378-.022460938 .3789978-.0014648438 .4229889 .09359741 .45498658 .16265869 .45999146 .2407074 .45999146 .31976319M.3769989 .3317871C.3769989 .25672914 .3769989 .18867493 .3659973 .12461853 .35099793 .029556275 .2939911-.00047302247 .24899292-.00047302247 .20999146-.00047302247 .15098572 .024551392 .1329956 .12062073 .12199402 .18066406 .12199402 .2727356 .12199402 .3317871 .12199402 .39582826 .12199402 .46188355 .12998963 .5159149 .14898682 .63500979 .22399903 .64401248 .24899292 .64401248 .28199769 .64401248 .34799195 .6259918 .36698915 .52693179 .3769989 .47088624 .3769989 .39482118 .3769989 .3317871Z"/>
<path id="font_5_2" d="M.7559967 .577652C.7659912 .61763 .7839966 .64860537 .8639984 .6516113 .86898806 .6516113 .8809967 .65260317 .8809967 .6716156 .8809967 .6726074 .8809967 .6826172 .8679962 .6826172 .83499148 .6826172 .7999878 .6796112 .7669983 .6796112 .73298647 .6796112 .69799807 .6826172 .6649933 .6826172 .6589966 .6826172 .6469879 .6826172 .6469879 .6626129 .6469879 .6516113 .6569977 .6516113 .6649933 .6516113 .7220001 .65060427 .73298647 .6296234 .73298647 .6076355 .73298647 .6046295 .73098757 .5896454 .7299957 .5866394L.6179962 .141922 .39698792 .66360476C.3889923 .6816101 .3880005 .6826172 .36499024 .6826172H.23098755C.21099854 .6826172 .20199585 .6826172 .20199585 .6626129 .20199585 .6516113 .21099854 .6516113 .22999573 .6516113 .23498535 .6516113 .2979889 .6516113 .2979889 .64260867L.1639862 .10594177C.1539917 .065963748 .13699341 .033996583 .055999757 .0309906 .049987794 .0309906 .038986207 .02999878 .038986207 .010986328 .038986207 .0039978029 .04399109 0 .051986696 0 .083999637 0 .11898804 .0029907227 .1519928 .0029907227 .18598938 .0029907227 .22200012 0 .25498963 0 .2599945 0 .272995 0 .272995 .019989014 .272995 .02999878 .2639923 .0309906 .25299073 .0309906 .19499207 .032989503 .18699646 .054977418 .18699646 .07496643 .18699646 .081954959 .18798828 .08695984 .19099427 .09794617L.32299806 .6256256C.32699586 .6196289 .32699586 .61763 .33198548 .6076355L.58099368 .018997193C.58799746 .0019989014 .59098818 0 .59999087 0 .61099246 0 .61099246 .0029907227 .6159973 .020996094L.7559967 .577652Z"/>
<clipPath id="clip_8">
<path transform="matrix(1,0,0,-1,.0008087158,156.26001)" d="M0 0H2384V3370H0Z"/>
</clipPath>
<path id="font_5_3" d="M.6349945 .5776062C.644989 .61860659 .6629944 .64860537 .7429962 .6516113 .7480011 .6516113 .7599945 .65260317 .7599945 .6716156 .7599945 .6726074 .7599945 .6826172 .746994 .6826172 .71398928 .6826172 .67900088 .6796112 .644989 .6796112 .61099246 .6796112 .57398989 .6826172 .54100039 .6826172 .5349884 .6826172 .522995 .6826172 .522995 .6626129 .522995 .6516113 .5329895 .6516113 .54100039 .6516113 .59799197 .65060427 .60899356 .62960818 .60899356 .607605 .60899356 .604599 .6069946 .5895996 .60598757 .5866089L.5159912 .22955323C.48199464 .09553528 .36698915 .008529663 .2669983 .008529663 .19898987 .008529663 .14498902 .05253601 .14498902 .1385498 .14498902 .1405487 .14498902 .17254639 .1559906 .21655274L.25299073 .6056061C.2619934 .64160159 .2639923 .6516113 .33699037 .6516113 .36299134 .6516113 .37098695 .6516113 .37098695 .6716156 .37098695 .6826172 .3600006 .6826172 .35699464 .6826172 .32899476 .6826172 .25698854 .6796112 .22898865 .6796112 .19999695 .6796112 .1289978 .6826172 .099990848 .6826172 .09199524 .6826172 .08099365 .6826172 .08099365 .6626129 .08099365 .6516113 .08999634 .6516113 .10899353 .6516113 .11099243 .6516113 .12998963 .6516113 .14698792 .6496124 .16499329 .6476135 .17399597 .64660647 .17399597 .63360598 .17399597 .62760928 .16299439 .5856018 .15699768 .56259158L.1349945 .47459413C.12599182 .4355774 .07798767 .24656677 .07398987 .22755432 .066986087 .19955445 .066986087 .18455506 .066986087 .16955567 .066986087 .047531129 .1579895-.022460938 .2630005-.022460938 .3889923-.022460938 .5130005 .090545658 .54599 .2225647L.6349945 .5776062Z"/>
<path id="font_9_2" d="M.43099977 .37594605C.40499879 .36994935 .3889923 .348938 .3889923 .32894898 .3889923 .30593873 .40899659 .2969513 .42199708 .2969513 .43199159 .2969513 .46998597 .302948 .46998597 .35394288 .46998597 .41940309 .397995 .44140626 .33699037 .44140626 .18099976 .44140626 .15299988 .325943 .15299988 .2949524 .15299988 .25804139 .17399597 .23410034 .18798828 .22212219 .21398926 .20217896 .23199463 .19818115 .30099488 .18621826 .32199098 .18222046 .38598634 .17025757 .38598634 .120285037 .38598634 .10328674 .375 .06529236 .33299256 .040252687 .2939911 .018234253 .24499512 .018234253 .23298645 .018234253 .19299317 .018234253 .13598633 .027236939 .11299133 .060287477 .1459961 .06428528 .16799927 .08929443 .16799927 .11729431 .16799927 .14228821 .1499939 .15429688 .1289978 .15429688 .099990848 .15429688 .070999149 .13128662 .070999149 .08729553 .070999149 .027236939 .1349945-.009765625 .23199463-.009765625 .41600038-.009765625 .44999696 .11628723 .44999696 .1552887 .44999696 .24707031 .34899903 .26501466 .31199647 .27200318 .30299378 .27400209 .27799989 .27798463 .27198792 .27998353 .23498535 .28697206 .21699524 .30795289 .21699524 .3299408 .21699524 .35295106 .23498535 .37998963 .25698854 .39416505 .28399659 .41137696 .31900025 .4133911 .33599855 .4133911 .35699464 .4133911 .40899659 .4103546 .43099977 .37594605Z"/>
<path id="font_4_1" d="M.4269867 .60365298C.4269867 .637619 .4269867 .6516113 .5219879 .6516113H.5549927V.6826172C.5189972 .6796112 .4269867 .6796112 .38598634 .6796112 .34498597 .6796112 .2519989 .6796112 .21598816 .6826172V.6516113H.24899292C.34399415 .6516113 .34399415 .6386261 .34399415 .60365298V.1598053C.21299744 .1947937 .20799256 .34875489 .20799256 .4137268 .20698548 .5346985 .16299439 .55371096 .11898804 .55371096H.08198547C.066986087 .55371096 .056991579 .55371096 .056991579 .54270938 .056991579 .53770449 .05999756 .5326996 .06599426 .53170779 .09899902 .52770999 .12399292 .5137024 .125 .3957367 .125 .3727417 .12799073 .2937622 .17599488 .22679138 .21499634 .17280579 .27598573 .14379883 .34399415 .1348114V.0789032C.34399415 .04496765 .34399415 .0309906 .24899292 .0309906H.21598816V0C.2519989 .0029907227 .34399415 .0029907227 .3849945 .0029907227 .42599488 .0029907227 .5189972 .0029907227 .5549927 0V.0309906H.5219879C.4269867 .0309906 .4269867 .04397583 .4269867 .0789032V.1348114C.49899293 .14379883 .55999758 .1737976 .598999 .2257843 .651001 .2967682 .6519928 .37574769 .6519928 .41973878 .6519928 .43572999 .6529999 .524704 .70700076 .53170779 .71299746 .5326996 .7200012 .53370669 .7200012 .54270938 .7200012 .55371096 .71199038 .55371096 .69599917 .55371096H.6579895C.61898806 .55371096 .56999209 .54670718 .56900027 .4017334 .56799319 .2917633 .5349884 .18579102 .4269867 .1598053V.60365298Z"/>
<path id="font_9_3" d="M.24598694 .39465333H.34799195C.36698915 .39465333 .37998963 .39465333 .37998963 .4166565 .37998963 .43066407 .36698915 .43066407 .34999085 .43066407H.25498963L.2919922 .57850649C.29299928 .58351138 .29499818 .588501 .29499818 .5924988 .29499818 .6104889 .2809906 .6244812 .26098634 .6244812 .23599243 .6244812 .22099304 .6074829 .21398926 .58151248 .20698548 .5565338 .21998596 .6044922 .17599488 .43066407H.07398987C.054992677 .43066407 .041992189 .43066407 .041992189 .4086609 .041992189 .39465333 .053985597 .39465333 .07199097 .39465333H.16699219L.10798645 .15901184C.101989749 .13404846 .09298706 .098098758 .09298706 .085128787 .09298706 .0262146 .14299011-.009765625 .19999695-.009765625 .31098939-.009765625 .37399293 .13005066 .37399293 .14303589 .37399293 .15602112 .36099244 .15602112 .35798646 .15602112 .34599305 .15602112 .34498597 .15402222 .33699037 .13703919 .30899049 .074142459 .2579956 .018234253 .20298767 .018234253 .18199158 .018234253 .16799927 .031204224 .16799927 .06715393 .16799927 .07713318 .17199707 .098098758 .17399597 .10809326L.24598694 .39465333Z"/>
<path id="font_10_1" d="M.3600006 .46505738C.36099244 .46606446 .36999513 .48506166 .36999513 .50006106 .36999513 .5360565 .33799745 .5590515 .30799867 .5590515 .2669983 .5590515 .2559967 .5280609 .25099183 .5130615L.09700012 .080078128C.09298706 .06808472 .09298706 .065078739 .09298706 .064071658 .09298706 .048080446 .1349945 .038085939 .13598633 .038085939 .14498902 .038085939 .14698792 .04307556 .15299988 .05508423L.3600006 .46505738Z"/>
<path id="font_4_3" d="M.68699648 .32714845C.70199587 .32714845 .72099307 .32714845 .72099307 .34713746 .72099307 .36714173 .70199587 .36714173 .6879883 .36714173H.08898926C.07499695 .36714173 .055999757 .36714173 .055999757 .34713746 .055999757 .32714845 .07499695 .32714845 .08999634 .32714845H.68699648M.6879883 .13284302C.70199587 .13284302 .72099307 .13284302 .72099307 .15284729 .72099307 .17285156 .70199587 .17285156 .68699648 .17285156H.08999634C.07499695 .17285156 .055999757 .17285156 .055999757 .15284729 .055999757 .13284302 .07499695 .13284302 .08898926 .13284302H.6879883Z"/>
<path id="font_9_1" d="M.40699769 .39465333H.5049896C.5249939 .39465333 .5379944 .39465333 .5379944 .4166565 .5379944 .43066407 .5249939 .43066407 .5069885 .43066407H.4139862C.43699647 .5580139 .44499208 .6040497 .45298768 .63305667 .45799256 .6550598 .47999574 .6760864 .5039978 .6760864 .5049896 .6760864 .5319977 .6760864 .5509949 .6640625 .5099945 .651062 .5069885 .61505129 .5069885 .60905459 .5069885 .5870514 .5239868 .572052 .5469971 .572052 .57398989 .572052 .60398867 .59506228 .60398867 .63305667 .60398867 .6790924 .5549927 .70410159 .5039978 .70410159 .45999146 .70410159 .41099549 .6790924 .38398744 .62905886 .3639984 .5920563 .35598756 .5469818 .33499146 .43066407H.2559967C.23599243 .43066407 .22299195 .43066407 .22299195 .4086609 .22299195 .39465333 .23599243 .39465333 .2539978 .39465333H.32798768C.32699586 .38865663 .2639923 .028869629 .23999024-.078063968 .23498535-.10006714 .21798706-.17610169 .16999817-.17610169 .16899109-.17610169 .14498902-.17610169 .12599182-.1640625 .16699219-.15107727 .16999817-.11506653 .16999817-.109069827 .16999817-.08706665 .15299988-.07206726 .12998963-.07206726 .102996829-.07206726 .07299805-.095077518 .07299805-.1330719 .07299805-.17811585 .11999512-.20410156 .16999817-.20410156 .23399353-.20410156 .27799989-.13807678 .2899933-.11607361 .32598878-.049087526 .34899903 .07385254 .35099793 .08584595L.40699769 .39465333Z"/>
<clipPath id="clip_11">
<path transform="matrix(1,0,0,-1,.0008087158,156.26001)" d="M0 0H2384V3370H0Z"/>
</clipPath>
<clipPath id="clip_12">
<path transform="matrix(1,0,0,-1,.0008087158,156.26001)" d="M0 0H2384V3370H0Z"/>
</clipPath>
<clipPath id="clip_13">
<path transform="matrix(.1,0,0,-.1,.0008087158,156.26001)" d="M0 0"/>
</clipPath>
</defs>
<g clip-path="url(#clip_1)">
<path transform="matrix(.1,0,0,-.1,.0007972717,156.26)" d="M286.691 1363.73 272.172 1406.12 256.555 1364.12 271.625 1363.93"/>
<path transform="matrix(.1,0,0,-.1,.0007972717,156.26)" stroke-width="9.06927" stroke-linecap="butt" stroke-miterlimit="10" stroke-linejoin="miter" fill="none" stroke="#000000" d="M258.566 358.434 271.625 1363.93"/>
<path transform="matrix(.1,0,0,-.1,.0007972717,156.26)" d="M1264.06 347.898 1306.25 362.969 1264.06 378.035V362.969"/>
<path transform="matrix(.1,0,0,-.1,.0007972717,156.26)" stroke-width="9.06927" stroke-linecap="butt" stroke-miterlimit="10" stroke-linejoin="miter" fill="none" stroke="#000000" d="M258.566 362.969H1264.06"/>
<path transform="matrix(.1,0,0,-.1,.0007972717,156.26)" d="M1212.68 688.277 1247.29 716.73 1202.48 716.641 1207.58 702.457" fill="#808080"/>
<path transform="matrix(.1,0,0,-.1,.0007972717,156.26)" stroke-width="9.06927" stroke-linecap="butt" stroke-miterlimit="10" stroke-linejoin="miter" fill="none" stroke="#808080" d="M263.102 362.969 1207.58 702.457"/>
<path transform="matrix(.1,0,0,-.1,.0007972717,156.26)" d="M2001.09 1359.2 1986.57 1401.58 1970.95 1359.59 1986.02 1359.39"/>
<path transform="matrix(.1,0,0,-.1,.0007972717,156.26)" stroke-width="9.06927" stroke-linecap="butt" stroke-miterlimit="10" stroke-linejoin="miter" fill="none" stroke="#000000" d="M1972.96 353.898 1986.02 1359.39"/>
<path transform="matrix(.1,0,0,-.1,.0007972717,156.26)" d="M2978.45 343.363 3020.64 358.434 2978.45 373.504V358.434"/>
<path transform="matrix(.1,0,0,-.1,.0007972717,156.26)" stroke-width="9.06927" stroke-linecap="butt" stroke-miterlimit="10" stroke-linejoin="miter" fill="none" stroke="#000000" d="M1972.96 358.434H2978.45"/>
<path transform="matrix(.1,0,0,-.1,.0007972717,156.26)" d="M1982.03 521.266V358.434H2099.95V684.094H1982.03" fill="#b3b3b3"/>
<path transform="matrix(.1,0,0,-.1,.0007972717,156.26)" stroke-width="9.06927" stroke-linecap="butt" stroke-miterlimit="10" stroke-linejoin="miter" fill="none" stroke="#000000" d="M1982.03 521.266V358.434H2099.95V684.094H1982.03Z"/>
<path transform="matrix(.1,0,0,-.1,.0007972717,156.26)" d="M2104.49 524.418V361.59H2222.41V687.25H2104.49" fill="#b3b3b3"/>
<path transform="matrix(.1,0,0,-.1,.0007972717,156.26)" stroke-width="9.06927" stroke-linecap="butt" stroke-miterlimit="10" stroke-linejoin="miter" fill="none" stroke="#000000" d="M2104.49 524.418V361.59H2222.41V687.25H2104.49Z"/>
<path transform="matrix(.1,0,0,-.1,.0007972717,156.26)" d="M2217.88 524.418V361.59H2335.8V687.25H2217.88" fill="#b3b3b3"/>
<path transform="matrix(.1,0,0,-.1,.0007972717,156.26)" stroke-width="9.06927" stroke-linecap="butt" stroke-miterlimit="10" stroke-linejoin="miter" fill="none" stroke="#000000" d="M2217.88 524.418V361.59H2335.8V687.25H2217.88Z"/>
<path transform="matrix(.1,0,0,-.1,.0007972717,156.26)" d="M2344.86 524.418V361.59H2462.79V687.25H2344.86" fill="#b3b3b3"/>
<path transform="matrix(.1,0,0,-.1,.0007972717,156.26)" stroke-width="9.06927" stroke-linecap="butt" stroke-miterlimit="10" stroke-linejoin="miter" fill="none" stroke="#000000" d="M2344.86 524.418V361.59H2462.79V687.25H2344.86Z"/>
<path transform="matrix(.1,0,0,-.1,.0007972717,156.26)" d="M2462.79 754.148V358.434H2580.71V1149.87H2462.79" fill="#ff0000"/>
<path transform="matrix(.1,0,0,-.1,.0007972717,156.26)" stroke-width="9.06927" stroke-linecap="butt" stroke-miterlimit="10" stroke-linejoin="miter" fill="none" stroke="#000000" d="M2462.79 754.148V358.434H2580.71V1149.87H2462.79Z"/>
<path transform="matrix(.1,0,0,-.1,.0007972717,156.26)" d="M2580.71 519.016V358.434H2698.63V679.602H2580.71" fill="#b3b3b3"/>
<path transform="matrix(.1,0,0,-.1,.0007972717,156.26)" stroke-width="9.06927" stroke-linecap="butt" stroke-miterlimit="10" stroke-linejoin="miter" fill="none" stroke="#000000" d="M2580.71 519.016V358.434H2698.63V679.602H2580.71Z"/>
<path transform="matrix(.1,0,0,-.1,.0007972717,156.26)" d="M2698.63 522.133V361.547H2816.55V682.719H2698.63" fill="#b3b3b3"/>
<path transform="matrix(.1,0,0,-.1,.0007972717,156.26)" stroke-width="9.06927" stroke-linecap="butt" stroke-miterlimit="10" stroke-linejoin="miter" fill="none" stroke="#000000" d="M2698.63 522.133V361.547H2816.55V682.719H2698.63Z"/>
<path transform="matrix(.1,0,0,-.1,.0007972717,156.26)" d="M2825.62 519.016V358.434H2943.54V679.602H2825.62" fill="#b3b3b3"/>
<path transform="matrix(.1,0,0,-.1,.0007972717,156.26)" stroke-width="9.06927" stroke-linecap="butt" stroke-miterlimit="10" stroke-linejoin="miter" fill="none" stroke="#000000" d="M2825.62 519.016V358.434H2943.54V679.602H2825.62Z"/>
</g>
<g clip-path="url(#clip_2)">
</g>
<use data-text="&#x00c9;" xlink:href="#font_3_250" transform="matrix(7.97008,0,0,-7.97008,307.0536,121.6896)"/>
<use data-text="l" xlink:href="#font_3_72" transform="matrix(7.97008,0,0,-7.97008,312.48124,121.6896)"/>
<use data-text="e" xlink:href="#font_3_50" transform="matrix(7.97008,0,0,-7.97008,314.6969,121.6896)"/>
<use data-text="m" xlink:href="#font_3_75" transform="matrix(7.97008,0,0,-7.97008,318.23564,121.6896)"/>
<use data-text="e" xlink:href="#font_3_50" transform="matrix(7.97008,0,0,-7.97008,324.8747,121.6896)"/>
<use data-text="n" xlink:href="#font_3_77" transform="matrix(7.97008,0,0,-7.97008,328.41343,121.6896)"/>
<use data-text="t" xlink:href="#font_3_105" transform="matrix(7.97008,0,0,-7.97008,332.62959,121.6896)"/>
<use data-text="s" xlink:href="#font_3_98" transform="matrix(7.97008,0,0,-7.97008,335.72996,121.6896)"/>
<use data-text="A" xlink:href="#font_3_27" transform="matrix(7.97008,0,0,-7.97008,197.7496,6.3919985)"/>
<use data-text="m" xlink:href="#font_3_75" transform="matrix(7.97008,0,0,-7.97008,203.72716,6.3919985)"/>
<use data-text="p" xlink:href="#font_3_84" transform="matrix(7.97008,0,0,-7.97008,210.36624,6.3919985)"/>
<use data-text="l" xlink:href="#font_3_72" transform="matrix(7.97008,0,0,-7.97008,214.7976,6.3919985)"/>
<use data-text="i" xlink:href="#font_3_66" transform="matrix(7.97008,0,0,-7.97008,217.01329,6.3919985)"/>
<use data-text="t" xlink:href="#font_3_105" transform="matrix(7.97008,0,0,-7.97008,219.22898,6.3919985)"/>
<use data-text="u" xlink:href="#font_3_109" transform="matrix(7.97008,0,0,-7.97008,222.32933,6.3919985)"/>
<use data-text="d" xlink:href="#font_3_47" transform="matrix(7.97008,0,0,-7.97008,226.7607,6.3919985)"/>
<use data-text="e" xlink:href="#font_3_50" transform="matrix(7.97008,0,0,-7.97008,231.19207,6.3919985)"/>
<use data-text="2" xlink:href="#font_4_2" transform="matrix(7.97008,0,0,-7.97008,62.140794,95.018398)"/>
<use data-text="&#x03b8;" xlink:href="#font_5_1" transform="matrix(7.97008,0,0,-7.97008,66.125598,95.018398)"/>
<use data-text="|" xlink:href="#font_6_2" transform="matrix(7.97008,0,0,-7.97008,14.9719929,10.480797)"/>
<use data-text="w" xlink:href="#font_5_5" transform="matrix(7.97008,0,0,-7.97008,17.186394,10.480797)"/>
<use data-text="&#x27e9;" xlink:href="#font_6_1" transform="matrix(7.97008,0,0,-7.97008,23.106396,10.480797)"/>
<use data-text="|" xlink:href="#font_6_2" transform="matrix(7.97008,0,0,-7.97008,136.97519,121.5984)"/>
<use data-text="s" xlink:href="#font_5_4" transform="matrix(7.97008,0,0,-7.97008,139.1896,121.5984)"/>
<use data-text="&#x2032;" xlink:href="#font_7_1" transform="matrix(5.57904,0,0,-5.57904,142.9256,118.705608)"/>
<use data-text="&#x27e9;" xlink:href="#font_6_1" transform="matrix(7.97008,0,0,-7.97008,145.16159,121.5984)"/>
<use data-text="|" xlink:href="#font_6_2" transform="matrix(7.97008,0,0,-7.97008,125.183208,84.861598)"/>
<use data-text="s" xlink:href="#font_5_4" transform="matrix(7.97008,0,0,-7.97008,127.397609,84.861598)"/>
<use data-text="&#x27e9;" xlink:href="#font_6_1" transform="matrix(7.97008,0,0,-7.97008,131.1336,84.861598)"/>
<use data-text="0" xlink:href="#font_3_121" transform="matrix(7.97008,0,0,-7.97008,195.02881,128.8584)"/>
<use data-text="N" xlink:href="#font_5_2" transform="matrix(7.97008,0,0,-7.97008,292.0872,129.94159)"/>
<use data-text="|" xlink:href="#font_6_2" transform="matrix(7.97008,0,0,-7.97008,248.0928,130.336)"/>
<use data-text="w" xlink:href="#font_5_5" transform="matrix(7.97008,0,0,-7.97008,250.30722,130.336)"/>
<use data-text="&#x27e9;" xlink:href="#font_6_1" transform="matrix(7.97008,0,0,-7.97008,256.2272,130.336)"/>
<g clip-path="url(#clip_8)">
<path transform="matrix(.1,0,0,-.1,.0008087158,156.26001)" d="M1166.21 5.60547 1211 4.66797 1176.94 33.7695 1171.57 19.6875" fill="#cccccc"/>
<path transform="matrix(.1,0,0,-.1,.0008087158,156.26001)" stroke-width="9.06927" stroke-linecap="butt" stroke-miterlimit="10" stroke-linejoin="miter" fill="none" stroke="#cccccc" d="M258.566 367.504 1171.57 19.6875"/>
</g>
<use data-text="U" xlink:href="#font_5_3" transform="matrix(7.97008,0,0,-7.97008,80.28241,31.056)"/>
<use data-text="s" xlink:href="#font_9_2" transform="matrix(5.57904,0,0,-5.57904,85.724018,32.252)"/>
<use data-text="|" xlink:href="#font_6_2" transform="matrix(7.97008,0,0,-7.97008,90.45921,31.056)"/>
<use data-text="&#x03a8;" xlink:href="#font_4_1" transform="matrix(7.97008,0,0,-7.97008,92.673618,31.056)"/>
<use data-text="t" xlink:href="#font_9_3" transform="matrix(5.57904,0,0,-5.57904,98.87201,32.252)"/>
<use data-text="&#x2032;" xlink:href="#font_10_1" transform="matrix(3.98504,0,0,-3.98504,101.280017,30.657593)"/>
<use data-text="&#x27e9;" xlink:href="#font_6_1" transform="matrix(7.97008,0,0,-7.97008,103.83441,31.056)"/>
<use data-text="=" xlink:href="#font_4_3" transform="matrix(7.97008,0,0,-7.97008,109.14721,31.056)"/>
<use data-text="U" xlink:href="#font_5_3" transform="matrix(7.97008,0,0,-7.97008,117.560817,31.056)"/>
<use data-text="s" xlink:href="#font_9_2" transform="matrix(5.57904,0,0,-5.57904,123.00241,32.252)"/>
<use data-text="U" xlink:href="#font_5_3" transform="matrix(7.97008,0,0,-7.97008,126.40881,31.056)"/>
<use data-text="f" xlink:href="#font_9_1" transform="matrix(5.57904,0,0,-5.57904,131.85042,32.252)"/>
<use data-text="|" xlink:href="#font_6_2" transform="matrix(7.97008,0,0,-7.97008,137.31122,31.056)"/>
<use data-text="&#x03a8;" xlink:href="#font_4_1" transform="matrix(7.97008,0,0,-7.97008,139.52481,31.056)"/>
<use data-text="t" xlink:href="#font_9_3" transform="matrix(5.57904,0,0,-5.57904,145.72402,32.252)"/>
<use data-text="&#x27e9;" xlink:href="#font_6_1" transform="matrix(7.97008,0,0,-7.97008,148.52962,31.056)"/>
<g clip-path="url(#clip_11)">
<path transform="matrix(.1,0,0,-.1,.0008087158,156.26001)" d="M749.363 1180.63 757.461 1224.7 723.281 1195.73 736.32 1188.18" fill="#ff0000"/>
<path transform="matrix(.1,0,0,-.1,.0008087158,156.26001)" stroke-width="9.06927" stroke-linecap="butt" stroke-miterlimit="10" stroke-linejoin="miter" fill="none" stroke="#ff0000" d="M258.566 362.969 736.32 1188.18"/>
</g>
<g clip-path="url(#clip_12)">
<g clip-path="url(#clip_13)">
</g>
</g>
</svg>
