<svg xmlns="http://www.w3.org/2000/svg" xmlns:xlink="http://www.w3.org/1999/xlink" version="1.1" width="343.71pt" height="137.74pt" viewBox="0 0 343.71 137.74">
<defs>
<clipPath id="clip_1">
<path transform="matrix(1,0,0,-1,-.0000038146974,137.74)" d="M0 0H2384V3370H0Z"/>
</clipPath>
<clipPath id="clip_2">
<path transform="matrix(1,0,0,-1,-.0000038146974,137.74)" d="M0 0H2384V3370H0Z"/>
</clipPath>
<path id="font_3_2" d="M.33499146 .63612368C.33499146 .6630554 .33299256 .6640625 .30499269 .6640625 .24099732 .6014404 .1499939 .6004486 .10899353 .6004486V.5644531C.1329956 .5644531 .19898987 .5644531 .2539978 .592453V.08203125C.2539978 .04899597 .2539978 .035995485 .1539917 .035995485H.115997318V0C.13398743 .0009918213 .25698854 .0039978029 .2939911 .0039978029 .32499696 .0039978029 .45098878 .0009918213 .47299195 0V.035995485H.43499757C.33499146 .035995485 .33499146 .04899597 .33499146 .08203125V.63612368Z"/>
<path id="font_4_2" d="M.44299317-.84217837 .24699402-.45318605C.24198914-.44317628 .23899842-.43717958 .23098755-.43717958 .22698975-.43717958 .22499085-.43717958 .21499634-.44517518L.10798645-.5161743C.09399414-.525177 .09399414-.5301819 .09399414-.5331726 .09399414-.5391846 .09899902-.5471802 .10798645-.5471802 .11199951-.5471802 .11399841-.5471802 .1269989-.5381775 .13798523-.5301819 .16699219-.5101776 .1789856-.502182L.397995-.9341736C.40499879-.949173 .40699769-.9511719 .42099-.9511719 .42999269-.9511719 .44099427-.9511719 .45098878-.9321747L.95399478 .003829956C.96199038 .016815186 .96199038 .018829346 .96199038 .02381897 .96199038 .03982544 .94898989 .048828126 .9379883 .048828126 .9229889 .048828126 .91799929 .03982544 .9119873 .027816773L.44299317-.84217837Z"/>
<path id="font_5_1" d="M.83399966 .5736542C.84399417 .6116333 .8600006 .64460757 .9399872 .64660647 .94499209 .64660647 .95999148 .6476135 .95999148 .6686096 .95999148 .6746063 .95500186 .6826172 .94499209 .6826172 .9119873 .6826172 .875 .6786041 .84098818 .6786041 .81700137 .6786041 .7589874 .6826172 .7350006 .6826172 .7299957 .6826172 .71499636 .6826172 .71499636 .660614 .71499636 .6476135 .7279968 .64660647 .7369995 .64660647 .7839966 .6456146 .8009949 .63061526 .8009949 .6056366 .8009949 .597641 .7999878 .59265139 .7969971 .5816498L.6879883 .1459198 .43399049 .66560366C.42599488 .6826172 .42399598 .6826172 .3999939 .6826172H.2630005C.24398804 .6826172 .23098755 .6826172 .23098755 .660614 .23098755 .64660647 .24299622 .64660647 .2639923 .64660647 .2849884 .64660647 .30699159 .6456146 .32798768 .6416168L.19400025 .10694885C.18499756 .06896973 .16799927 .038986207 .08999634 .035995485 .08299255 .035995485 .068984989 .034988405 .068984989 .01499939 .068984989 .0039978029 .07699585 0 .083999637 0 .116989139 0 .1539917 .0039978029 .18798828 .0039978029 .21199036 .0039978029 .269989 0 .2939911 0 .3039856 0 .31399537 .004989624 .31399537 .020996094 .31399537 .034988405 .3019867 .035995485 .29100038 .035995485 .22799683 .037994386 .22799683 .0639801 .22799683 .07797241 .22799683 .081970218 .22799683 .08695984 .23199463 .10295105L.3600006 .614624 .6519928 .016998291C.6599884 .0009918213 .6639862 0 .673996 0 .6899872 0 .6899872 .0029907227 .69499209 .020996094L.83399966 .5736542Z"/>
<path id="font_6_250" d="M.6519928 .2579193H.6269989C.60198977 .10397339 .57899478 .0309906 .40699769 .0309906H.27398683C.22698975 .0309906 .22499085 .037994386 .22499085 .07098389V.33789063H.31498719C.4119873 .33789063 .4229889 .30589295 .4229889 .220932H.44799806V.48606874H.4229889C.4229889 .39994813 .4119873 .36888124 .31498719 .36888124H.22499085V.6087799C.22499085 .6416931 .22698975 .64868167 .27398683 .64868167H.40299989C.55599978 .64868167 .58299258 .59381106 .598999 .45507813H.6239929L.59599307 .6796875H.032989503V.64868167H.056991579C.13398743 .64868167 .13598633 .6377106 .13598633 .6017914V.07797241C.13598633 .041992189 .13398743 .0309906 .056991579 .0309906H.032989503V0H.6100006L.6519928 .2579193M.47698976 .867157C.48098756 .88916018 .46398927 .9091797 .44198609 .9091797 .42999269 .9091797 .41999818 .9011688 .41600038 .897171L.2709961 .76708987 .2849884 .74609377 .45498658 .84013369C.46598817 .84513857 .47499085 .8551483 .47698976 .867157Z"/>
<path id="font_6_72" d="M.25498963 0V.0309906C.18798828 .0309906 .1769867 .0309906 .1769867 .07601929V.69433596L.032989503 .6826172V.6516113C.102996829 .6516113 .11099243 .64460757 .11099243 .5956421V.07595825C.11099243 .0309906 .099990848 .0309906 .032989503 .0309906V0L.14399719 .0029907227 .25498963 0Z"/>
<path id="font_6_50" d="M.4149933 .11933899C.4149933 .12934876 .40699769 .13134766 .4019928 .13134766 .3929901 .13134766 .3909912 .12535095 .3889923 .11734009 .35398866 .014251709 .2639923 .014251709 .2539978 .014251709 .20399475 .014251709 .1639862 .044281007 .14099121 .08131409 .11099243 .12934876 .11099243 .19540406 .11099243 .23144531H.3899994C.4119873 .23144531 .4149933 .23144531 .4149933 .2524414 .4149933 .35131837 .36099244 .4482422 .23599243 .4482422 .11999512 .4482422 .027999878 .34532167 .027999878 .22042847 .027999878 .08631897 .1329956-.0107421879 .24798584-.0107421879 .36999513-.0107421879 .4149933 .10032654 .4149933 .11933899M.34899903 .2524414H.11199951C.117996219 .40126039 .20199585 .426239 .23599243 .426239 .33898927 .426239 .34899903 .2913971 .34899903 .2524414Z"/>
<path id="font_6_75" d="M.8129883 0V.0309906C.7609863 .0309906 .73599246 .0309906 .7350006 .061019899V.25221253C.7350006 .3383026 .7350006 .36932374 .70399478 .405365 .6899872 .42237855 .6569977 .4423828 .598999 .4423828 .5149994 .4423828 .47099305 .38233949 .45399476 .34429933 .43998719 .43138124 .3659973 .4423828 .32099916 .4423828 .24798584 .4423828 .20098877 .39935304 .17298889 .33729554V.4423828L.03199768 .43066407V.3996582C.101989749 .3996582 .10998535 .39266969 .10998535 .34370423V.07595825C.10998535 .0309906 .09899902 .0309906 .03199768 .0309906V0L.14498902 .0029907227 .25698854 0V.0309906C.18998719 .0309906 .1789856 .0309906 .1789856 .07595825V.25978089C.1789856 .36431886 .25 .42037965 .31399537 .42037965 .3769989 .42037965 .3880005 .36631776 .3880005 .30926515V.076034549C.3880005 .0309906 .3769989 .0309906 .30999757 .0309906V0L.4229889 .0029907227 .5349884 0V.0309906C.46798707 .0309906 .45700074 .0309906 .45700074 .076034549V.2602234C.45700074 .36431886 .5279999 .42037965 .59199526 .42037965 .6549988 .42037965 .66600039 .36631776 .66600039 .30926515V.076034549C.66600039 .0309906 .6549988 .0309906 .58799746 .0309906V0L.70098879 .0029907227 .8129883 0Z"/>
<path id="font_6_77" d="M.5349884 0V.0309906C.48298646 .0309906 .45799256 .0309906 .45700074 .061019899V.25221253C.45700074 .3383026 .45700074 .36932374 .42599488 .405365 .4119873 .42237855 .3789978 .4423828 .32099916 .4423828 .24798584 .4423828 .20098877 .39935304 .17298889 .33729554V.4423828L.03199768 .43066407V.3996582C.101989749 .3996582 .10998535 .39266969 .10998535 .34370423V.07595825C.10998535 .0309906 .09899902 .0309906 .03199768 .0309906V0L.14498902 .0029907227 .25698854 0V.0309906C.18998719 .0309906 .1789856 .0309906 .1789856 .07595825V.25978089C.1789856 .36431886 .25 .42037965 .31399537 .42037965 .3769989 .42037965 .3880005 .36631776 .3880005 .30926515V.076034549C.3880005 .0309906 .3769989 .0309906 .30999757 .0309906V0L.4229889 .0029907227 .5349884 0Z"/>
<path id="font_6_105" d="M.33198548 .12385559V.18066406H.30699159V.12585449C.30699159 .052108766 .2769928 .014251709 .23999024 .014251709 .17298889 .014251709 .17298889 .10491943 .17298889 .12187195V.3996582H.31599427V.43066407H.17298889V.6142578H.147995C.14698792 .5324249 .116989139 .42565919 .018997193 .42166139V.3996582H.10398865V.12408447C.10398865 .0012512207 .19699097-.0107421879 .23298645-.0107421879 .3039856-.0107421879 .33198548 .060180665 .33198548 .12408447V.12385559Z"/>
<path id="font_6_98" d="M.3600006 .12823487C.3600006 .18122864 .32998658 .21122742 .31799317 .22323609 .2849884 .25523377 .24598694 .26322938 .20399475 .27124024 .147995 .28224183 .08099365 .29522706 .08099365 .35324098 .08099365 .38822938 .10699463 .42922975 .19299317 .42922975 .30299378 .42922975 .30799867 .3392334 .30999757 .30822755 .31098939 .2992401 .32199098 .2992401 .32199098 .2992401 .33499146 .2992401 .33499146 .30422975 .33499146 .32322694V.4242401C.33499146 .4412384 .33499146 .4482422 .32398988 .4482422 .31900025 .4482422 .31698609 .4482422 .3039856 .43623353 .30099488 .43223573 .29100038 .42323304 .2869873 .42022706 .24899292 .4482422 .20799256 .4482422 .19299317 .4482422 .070999149 .4482422 .032989503 .38124085 .032989503 .3252411 .032989503 .29023744 .04899597 .26223756 .07598877 .24023438 .10798645 .2142334 .13598633 .2082367 .20799256 .19422913 .22999573 .19021607 .31199647 .17422486 .31199647 .10221863 .31199647 .051223756 .2769928 .011245728 .19898987 .011245728 .114990238 .011245728 .07899475 .068222049 .05999756 .1532135 .056991579 .16621399 .055999757 .17021179 .04598999 .17021179 .032989503 .17021179 .032989503 .16322327 .032989503 .1452179V.013214111C.032989503-.003753662 .032989503-.0107421879 .04399109-.0107421879 .04899597-.0107421879 .049987794-.009750366 .068984989 .009246826 .070999149 .011245728 .070999149 .013214111 .08898926 .032226564 .1329956-.009750366 .17799378-.0107421879 .19898987-.0107421879 .31399537-.0107421879 .3600006 .05621338 .3600006 .1282196V.12823487Z"/>
<path id="font_6_27" d="M.71699526 0V.0309906H.69898989C.6389923 .0309906 .625 .037979127 .6139984 .07095337L.397995 .6958008C.3929901 .7088165 .3909912 .7158203 .375 .7158203 .35899354 .7158203 .35598756 .70980837 .35099793 .6958008L.14399719 .09791565C.12599182 .04698181 .085998538 .03199768 .03199768 .0309906V0L.13398743 .0029907227 .24899292 0V.0309906C.19898987 .0309906 .17399597 .05596924 .17399597 .0819397 .17399597 .08493042 .1749878 .09492493 .17599488 .09692383L.22200012 .2277832H.46899415L.5219879 .07495117C.522995 .07095337 .5249939 .064956668 .5249939 .060958864 .5249939 .0309906 .46899415 .0309906 .44198609 .0309906V0C.47799684 .0029907227 .5479889 .0029907227 .58599856 .0029907227L.71699526 0M.45799256 .25878907H.23298645L.34498597 .58380129 .45799256 .25878907Z"/>
<path id="font_6_84" d="M.5209961 .21636963C.5209961 .34336854 .42399598 .4423828 .31199647 .4423828 .23399353 .4423828 .19198609 .39837647 .17199707 .3763733V.4423828L.027999878 .43066407V.3996582C.09899902 .3996582 .10598755 .3936615 .10598755 .34973146V-.117996219C.10598755-.16308594 .09498596-.16308594 .027999878-.16308594V-.1940918L.13999939-.19110108 .25299073-.1940918V-.16308594C.18598938-.16308594 .1749878-.16308594 .1749878-.117996219V.050186159 .059173585C.17999268 .04319763 .22200012-.0107421879 .2979889-.0107421879 .4169922-.0107421879 .5209961 .087127689 .5209961 .21594239V.21636963M.43798829 .21594239C.43798829 .09512329 .36799623 .011245728 .2939911 .011245728 .2539978 .011245728 .21598816 .031219483 .18899536 .07215881 .1749878 .09312439 .1749878 .09411621 .1749878 .114089969V.33674623C.20399475 .38838197 .25299073 .41737367 .3039856 .41737367 .3769989 .41737367 .43798829 .32937623 .43798829 .21636963V.21594239Z"/>
<path id="font_6_66" d="M.24699402 0V.0309906C.18099976 .0309906 .1769867 .035995485 .1769867 .075042728V.4423828L.036987306 .43066407V.3996582C.101989749 .3996582 .11099243 .3936615 .11099243 .3447113V.07595825C.11099243 .0309906 .099990848 .0309906 .032989503 .0309906V0L.14299011 .0029907227C.17799378 .0029907227 .21299744 .0009918213 .24699402 0M.19198609 .603775C.19198609 .6307678 .16899109 .6567688 .13899231 .6567688 .10499573 .6567688 .084991458 .6287689 .084991458 .603775 .084991458 .57676699 .10798645 .55078127 .13798523 .55078127 .17199707 .55078127 .19198609 .5787811 .19198609 .603775Z"/>
<path id="font_6_109" d="M.5349884 0V.0309906C.46499635 .0309906 .45700074 .037994386 .45700074 .08705139V.4423828L.30999757 .43066407V.3996582C.37998963 .3996582 .3880005 .39266969 .3880005 .34373475V.16601563C.3880005 .07910156 .33999635 .011245728 .2669983 .011245728 .18299866 .011245728 .1789856 .058135988 .1789856 .11009216V.4423828L.03199768 .43066407V.3996582C.10998535 .3996582 .10998535 .39666749 .10998535 .3078003V.15802002C.10998535 .080093387 .10998535-.0107421879 .2619934-.0107421879 .31799317-.0107421879 .3619995 .017242432 .3909912 .07910156V-.0107421879L.5349884 0Z"/>
<path id="font_6_47" d="M.5269928 0V.0309906C.45700074 .0309906 .44898988 .038009645 .44898988 .0871582V.69433596L.30499269 .6826172V.6516113C.375 .6516113 .3829956 .64463809 .3829956 .59580996V.38035584C.35398866 .41636659 .31098939 .4423828 .25698854 .4423828 .13899231 .4423828 .033996583 .3443451 .033996583 .21531677 .033996583 .088272098 .13198853-.0107421879 .24598694-.0107421879 .30999757-.0107421879 .35499574 .023254395 .37998963 .055267335V-.0107421879L.5269928 0M.37998963 .117996219C.37998963 .099990848 .37998963 .09799194 .36898805 .08099365 .33898927 .033218385 .2939911 .011245728 .25099183 .011245728 .20599365 .011245728 .16999817 .037216188 .1459961 .075164798 .11999512 .1161499 .116989139 .17320252 .116989139 .21421814 .116989139 .25125123 .11898804 .31129457 .147995 .35632325 .16899109 .38734437 .20698548 .42037965 .26098634 .42037965 .29599 .42037965 .33799745 .405365 .36898805 .3603363 .37998963 .34332276 .37998963 .34132386 .37998963 .32330323V.117996219Z"/>
<path id="font_7_1" d="M.45498658 .5001831C.45498658 .56614688 .43699647 .7050781 .33499146 .7050781 .19599915 .7050781 .041992189 .42323304 .041992189 .19425965 .041992189 .100250247 .070999149-.0107421879 .1619873-.0107421879 .30299378-.0107421879 .45498658 .27627564 .45498658 .5001831M.147995 .36328126C.16499329 .42723084 .18499756 .5071869 .22499085 .57814028 .2519989 .6271057 .2889862 .68307498 .33399964 .68307498 .3829956 .68307498 .3889923 .6191101 .3889923 .56214907 .3889923 .5131836 .3809967 .46220399 .35699464 .36328126H.147995M.34799195 .3312683C.33699037 .28527833 .31599427 .2002716 .27799989 .12826538 .24299622 .060256959 .20498657 .011245728 .1619873 .011245728 .1289978 .011245728 .10798645 .040252687 .10798645 .133255 .10798645 .17526245 .11399841 .23326111 .13999939 .3312683H.34799195Z"/>
<path id="font_8_2" d="M.15899658 .71398928C.15899658 .7319946 .15899658 .75 .13899231 .75 .11898804 .75 .11898804 .7319946 .11898804 .71398928V-.21400452C.11898804-.23200989 .11898804-.25 .13899231-.25 .15899658-.25 .15899658-.23200989 .15899658-.21400452V.71398928Z"/>
<path id="font_7_4" d="M.46199037 .33935548C.46699525 .36135865 .47698976 .3983612 .47698976 .40437318 .47698976 .42237855 .46299745 .43138124 .44799806 .43138124 .43598939 .43138124 .41799928 .42337037 .41099549 .4033661 .4079895 .3963623 .36099244 .205307 .35398866 .17930603 .34700013 .14929199 .34498597 .13128662 .34498597 .11328125 .34498597 .10227966 .34498597 .10028076 .34599305 .09527588 .32299806 .042266847 .29299928 .011245728 .2539978 .011245728 .17399597 .011245728 .17399597 .08526611 .17399597 .10227966 .17399597 .1342926 .1789856 .17329407 .22599793 .29634095 .23699951 .32633973 .24299622 .3403473 .24299622 .36035157 .24299622 .405365 .20999146 .4423828 .16099549 .4423828 .06599426 .4423828 .0289917 .29733277 .0289917 .28833009 .0289917 .27833558 .038986207 .27833558 .040985109 .27833558 .050994874 .27833558 .051986696 .28033448 .056991579 .29634095 .083999637 .38935853 .12298584 .42037965 .1579895 .42037965 .16699219 .42037965 .18299866 .41937257 .18299866 .38735963 .18299866 .36235047 .17199707 .3343506 .16499329 .31733705 .12098694 .1993103 .10899353 .1532898 .10899353 .11528015 .10899353 .024261475 .17599488-.0107421879 .25099183-.0107421879 .2679901-.0107421879 .31498719-.0107421879 .35499574 .059265138 .3809967-.0047454836 .44999696-.0107421879 .47999574-.0107421879 .5549927-.0107421879 .598999 .052261354 .625 .11227417 .6589966 .19030762 .69099429 .32434083 .69099429 .37236024 .69099429 .42736817 .6639862 .4423828 .6469879 .4423828 .621994 .4423828 .5970001 .41636659 .5970001 .3943634 .5970001 .38136292 .6029968 .3753662 .6119995 .36735536 .6230011 .35635377 .647995 .33035279 .647995 .28233338 .647995 .24832154 .61898806 .15029907 .59298709 .09927368 .5669861 .04626465 .5319977 .011245728 .48298646 .011245728 .43598939 .011245728 .40899659 .041259767 .40899659 .09828186 .40899659 .12628174 .41600038 .1572876 .41999818 .17129517L.46199037 .33935548Z"/>
<path id="font_8_1" d="M.272995 .23298645C.27799989 .24499512 .27799989 .24699402 .27799989 .25 .27799989 .25299073 .27799989 .25498963 .272995 .2669983L.09799194 .72698977C.09199524 .74398806 .085998538 .75 .07499695 .75 .06399536 .75 .054992677 .7409973 .054992677 .7299957 .054992677 .72698977 .054992677 .72499087 .05999756 .71398928L.23699951 .25 .05999756-.21200562C.054992677-.2230072 .054992677-.2250061 .054992677-.23001099 .054992677-.24101258 .06399536-.25 .07499695-.25 .08799744-.25 .09199524-.2400055 .09599304-.23001099L.272995 .23298645Z"/>
<path id="font_7_3" d="M.3909912 .37405396C.36299134 .37304688 .34298707 .3510437 .34298707 .32904054 .34298707 .31503297 .35198976 .30003358 .37399293 .30003358 .3959961 .30003358 .41999818 .31703187 .41999818 .35603334 .41999818 .40124513 .3769989 .4423828 .30099488 .4423828 .16899109 .4423828 .13198853 .3400421 .13198853 .29605104 .13198853 .21820069 .20599365 .20323181 .23498535 .19725037 .2869873 .18727112 .33898927 .17628479 .33898927 .12133789 .33898927 .095336917 .31599427 .011245728 .19599915 .011245728 .18199158 .011245728 .10499573 .011245728 .08198547 .064331058 .11999512 .059326173 .14498902 .08934021 .14498902 .11734009 .14498902 .14033509 .1289978 .15234375 .10798645 .15234375 .08198547 .15234375 .051986696 .1313324 .051986696 .08633423 .051986696 .029281617 .10899353-.0107421879 .19499207-.0107421879 .35699464-.0107421879 .3959961 .1103363 .3959961 .15533448 .3959961 .19125366 .3769989 .21620178 .36499024 .22817993 .33799745 .25613404 .30899049 .26112367 .2649994 .27009584 .22898865 .27807618 .18899536 .2850647 .18899536 .33003236 .18899536 .3590393 .21299744 .42037965 .30099488 .42037965 .32598878 .42037965 .37599183 .41333009 .3909912 .37405396Z"/>
<path id="font_9_2" d="M.68699648 .32714845C.70199587 .32714845 .72099307 .32714845 .72099307 .34713746 .72099307 .36714173 .70199587 .36714173 .6879883 .36714173H.08898926C.07499695 .36714173 .055999757 .36714173 .055999757 .34713746 .055999757 .32714845 .07499695 .32714845 .08999634 .32714845H.68699648M.6879883 .13284302C.70199587 .13284302 .72099307 .13284302 .72099307 .15284729 .72099307 .17285156 .70199587 .17285156 .68699648 .17285156H.08999634C.07499695 .17285156 .055999757 .17285156 .055999757 .15284729 .055999757 .13284302 .07499695 .13284302 .08898926 .13284302H.6879883Z"/>
<path id="font_9_1" d="M.4269867 .60365298C.4269867 .637619 .4269867 .6516113 .5219879 .6516113H.5549927V.6826172C.5189972 .6796112 .4269867 .6796112 .38598634 .6796112 .34498597 .6796112 .2519989 .6796112 .21598816 .6826172V.6516113H.24899292C.34399415 .6516113 .34399415 .6386261 .34399415 .60365298V.1598053C.21299744 .1947937 .20799256 .34875489 .20799256 .4137268 .20698548 .5346985 .16299439 .55371096 .11898804 .55371096H.08198547C.066986087 .55371096 .056991579 .55371096 .056991579 .54270938 .056991579 .53770449 .05999756 .5326996 .06599426 .53170779 .09899902 .52770999 .12399292 .5137024 .125 .3957367 .125 .3727417 .12799073 .2937622 .17599488 .22679138 .21499634 .17280579 .27598573 .14379883 .34399415 .1348114V.0789032C.34399415 .04496765 .34399415 .0309906 .24899292 .0309906H.21598816V0C.2519989 .0029907227 .34399415 .0029907227 .3849945 .0029907227 .42599488 .0029907227 .5189972 .0029907227 .5549927 0V.0309906H.5219879C.4269867 .0309906 .4269867 .04397583 .4269867 .0789032V.1348114C.49899293 .14379883 .55999758 .1737976 .598999 .2257843 .651001 .2967682 .6519928 .37574769 .6519928 .41973878 .6519928 .43572999 .6529999 .524704 .70700076 .53170779 .71299746 .5326996 .7200012 .53370669 .7200012 .54270938 .7200012 .55371096 .71199038 .55371096 .69599917 .55371096H.6579895C.61898806 .55371096 .56999209 .54670718 .56900027 .4017334 .56799319 .2917633 .5349884 .18579102 .4269867 .1598053V.60365298Z"/>
<path id="font_3_1" d="M.5159912 .31925965C.5159912 .42918397 .5029907 .50813296 .45700074 .5780945 .42599488 .62405398 .3639984 .6640625 .28399659 .6640625 .051986696 .6640625 .051986696 .39120484 .051986696 .31925965 .051986696 .2472992 .051986696-.01953125 .28399659-.01953125 .5159912-.01953125 .5159912 .2472992 .5159912 .31925965M.28399659 .008468628C.23799134 .008468628 .1769867 .035446168 .15699768 .117385867 .14299011 .17634583 .14299011 .25830079 .14299011 .33224488 .14299011 .40519715 .14299011 .4811554 .1579895 .53611758 .1789856 .6150665 .24299622 .63604739 .28399659 .63604739 .33799745 .63604739 .3899994 .6030731 .4079895 .545105 .42399598 .4911499 .4249878 .41918946 .4249878 .33224488 .4249878 .25830079 .4249878 .18434143 .4119873 .12138367 .3919983 .030441285 .32398988 .008468628 .28399659 .008468628Z"/>
<path id="font_4_1" d="M.2899933 .4720459C.2979889 .4890442 .29899598 .49705506 .29899598 .5040436 .29899598 .53504946 .2709961 .5590515 .23999024 .5590515 .20199585 .5590515 .18998719 .52804568 .18499756 .51205447L.052993776 .07901001C.051986696 .07701111 .04798889 .06401062 .04798889 .06300354 .04798889 .05101013 .07899475 .041015626 .08699036 .041015626 .09399414 .041015626 .09498596 .043014528 .101989749 .058013917L.2899933 .4720459Z"/>
<path id="font_6_121" d="M.45999146 .31976319C.45999146 .39982606 .45498658 .47988893 .41999818 .5539398 .37399293 .65000918 .2919922 .6660156 .25 .6660156 .18998719 .6660156 .116989139 .64001467 .07598877 .54693606 .04399109 .47789 .038986207 .39982606 .038986207 .31976319 .038986207 .24472046 .042999269 .15464783 .083999637 .07859802 .1269989-.0024719239 .19999695-.022460938 .24899292-.022460938 .30299378-.022460938 .3789978-.0014648438 .4229889 .09359741 .45498658 .16265869 .45999146 .2407074 .45999146 .31976319M.3769989 .3317871C.3769989 .25672914 .3769989 .18867493 .3659973 .12461853 .35099793 .029556275 .2939911-.00047302247 .24899292-.00047302247 .20999146-.00047302247 .15098572 .024551392 .1329956 .12062073 .12199402 .18066406 .12199402 .2727356 .12199402 .3317871 .12199402 .39582826 .12199402 .46188355 .12998963 .5159149 .14898682 .63500979 .22399903 .64401248 .24899292 .64401248 .28199769 .64401248 .34799195 .6259918 .36698915 .52693179 .3769989 .47088624 .3769989 .39482118 .3769989 .3317871Z"/>
<path id="font_7_2" d="M.7559967 .577652C.7659912 .61763 .7839966 .64860537 .8639984 .6516113 .86898806 .6516113 .8809967 .65260317 .8809967 .6716156 .8809967 .6726074 .8809967 .6826172 .8679962 .6826172 .83499148 .6826172 .7999878 .6796112 .7669983 .6796112 .73298647 .6796112 .69799807 .6826172 .6649933 .6826172 .6589966 .6826172 .6469879 .6826172 .6469879 .6626129 .6469879 .6516113 .6569977 .6516113 .6649933 .6516113 .7220001 .65060427 .73298647 .6296234 .73298647 .6076355 .73298647 .6046295 .73098757 .5896454 .7299957 .5866394L.6179962 .141922 .39698792 .66360476C.3889923 .6816101 .3880005 .6826172 .36499024 .6826172H.23098755C.21099854 .6826172 .20199585 .6826172 .20199585 .6626129 .20199585 .6516113 .21099854 .6516113 .22999573 .6516113 .23498535 .6516113 .2979889 .6516113 .2979889 .64260867L.1639862 .10594177C.1539917 .065963748 .13699341 .033996583 .055999757 .0309906 .049987794 .0309906 .038986207 .02999878 .038986207 .010986328 .038986207 .0039978029 .04399109 0 .051986696 0 .083999637 0 .11898804 .0029907227 .1519928 .0029907227 .18598938 .0029907227 .22200012 0 .25498963 0 .2599945 0 .272995 0 .272995 .019989014 .272995 .02999878 .2639923 .0309906 .25299073 .0309906 .19499207 .032989503 .18699646 .054977418 .18699646 .07496643 .18699646 .081954959 .18798828 .08695984 .19099427 .09794617L.32299806 .6256256C.32699586 .6196289 .32699586 .61763 .33198548 .6076355L.58099368 .018997193C.58799746 .0019989014 .59098818 0 .59999087 0 .61099246 0 .61099246 .0029907227 .6159973 .020996094L.7559967 .577652Z"/>
</defs>
<g clip-path="url(#clip_1)">
<path transform="matrix(.1,0,0,-.1,-.0000038146974,137.74)" d="M163.516 1168.57 148.996 1210.96 133.379 1168.96 148.449 1168.77"/>
<path transform="matrix(.1,0,0,-.1,-.0000038146974,137.74)" stroke-width="9.06927" stroke-linecap="butt" stroke-miterlimit="10" stroke-linejoin="miter" fill="none" stroke="#000000" d="M135.391 163.277 148.449 1168.77"/>
<path transform="matrix(.1,0,0,-.1,-.0000038146974,137.74)" d="M1140.88 152.738 1183.08 167.809 1140.88 182.879V167.809"/>
<path transform="matrix(.1,0,0,-.1,-.0000038146974,137.74)" stroke-width="9.06927" stroke-linecap="butt" stroke-miterlimit="10" stroke-linejoin="miter" fill="none" stroke="#000000" d="M135.391 167.809H1140.88"/>
<path transform="matrix(.1,0,0,-.1,-.0000038146974,137.74)" d="M1089.5 493.117 1124.11 521.57 1079.31 521.48 1084.41 507.301" fill="#ff0000"/>
<path transform="matrix(.1,0,0,-.1,-.0000038146974,137.74)" stroke-width="9.06927" stroke-linecap="butt" stroke-miterlimit="10" stroke-linejoin="miter" fill="none" stroke="#ff0000" d="M139.926 167.809 1084.41 507.301"/>
<path transform="matrix(.1,0,0,-.1,-.0000038146974,137.74)" d="M1877.91 1164.04 1863.39 1206.42 1847.77 1164.43 1862.84 1164.23"/>
<path transform="matrix(.1,0,0,-.1,-.0000038146974,137.74)" stroke-width="9.06927" stroke-linecap="butt" stroke-miterlimit="10" stroke-linejoin="miter" fill="none" stroke="#000000" d="M1849.78 158.738 1862.84 1164.23"/>
<path transform="matrix(.1,0,0,-.1,-.0000038146974,137.74)" d="M2855.27 148.207 2897.47 163.277 2855.27 178.344V163.277"/>
<path transform="matrix(.1,0,0,-.1,-.0000038146974,137.74)" stroke-width="9.06927" stroke-linecap="butt" stroke-miterlimit="10" stroke-linejoin="miter" fill="none" stroke="#000000" d="M1849.78 163.277H2855.27"/>
<path transform="matrix(.1,0,0,-.1,-.0000038146974,137.74)" d="M1858.85 399.117V163.273H1976.78V634.961H1858.85" fill="#b3b3b3"/>
<path transform="matrix(.1,0,0,-.1,-.0000038146974,137.74)" stroke-width="9.06927" stroke-linecap="butt" stroke-miterlimit="10" stroke-linejoin="miter" fill="none" stroke="#000000" d="M1858.85 399.117V163.273H1976.78V634.961H1858.85Z"/>
<path transform="matrix(.1,0,0,-.1,-.0000038146974,137.74)" d="M1981.31 403.652V167.809H2099.23V639.496H1981.31" fill="#b3b3b3"/>
<path transform="matrix(.1,0,0,-.1,-.0000038146974,137.74)" stroke-width="9.06927" stroke-linecap="butt" stroke-miterlimit="10" stroke-linejoin="miter" fill="none" stroke="#000000" d="M1981.31 403.652V167.809H2099.23V639.496H1981.31Z"/>
<path transform="matrix(.1,0,0,-.1,-.0000038146974,137.74)" d="M2094.7 403.652V167.809H2212.62V639.496H2094.7" fill="#b3b3b3"/>
<path transform="matrix(.1,0,0,-.1,-.0000038146974,137.74)" stroke-width="9.06927" stroke-linecap="butt" stroke-miterlimit="10" stroke-linejoin="miter" fill="none" stroke="#000000" d="M2094.7 403.652V167.809H2212.62V639.496H2094.7Z"/>
<path transform="matrix(.1,0,0,-.1,-.0000038146974,137.74)" d="M2221.69 403.652V167.809H2339.61V639.496H2221.69" fill="#b3b3b3"/>
<path transform="matrix(.1,0,0,-.1,-.0000038146974,137.74)" stroke-width="9.06927" stroke-linecap="butt" stroke-miterlimit="10" stroke-linejoin="miter" fill="none" stroke="#000000" d="M2221.69 403.652V167.809H2339.61V639.496H2221.69Z"/>
<path transform="matrix(.1,0,0,-.1,-.0000038146974,137.74)" d="M2335.07 399.117V163.273H2453V634.961H2335.07" fill="#ff0000"/>
<path transform="matrix(.1,0,0,-.1,-.0000038146974,137.74)" stroke-width="9.06927" stroke-linecap="butt" stroke-miterlimit="10" stroke-linejoin="miter" fill="none" stroke="#000000" d="M2335.07 399.117V163.273H2453V634.961H2335.07Z"/>
<path transform="matrix(.1,0,0,-.1,-.0000038146974,137.74)" d="M2457.53 399.117V163.273H2575.45V634.961H2457.53" fill="#b3b3b3"/>
<path transform="matrix(.1,0,0,-.1,-.0000038146974,137.74)" stroke-width="9.06927" stroke-linecap="butt" stroke-miterlimit="10" stroke-linejoin="miter" fill="none" stroke="#000000" d="M2457.53 399.117V163.273H2575.45V634.961H2457.53Z"/>
<path transform="matrix(.1,0,0,-.1,-.0000038146974,137.74)" d="M2575.45 403.652V167.809H2693.38V639.496H2575.45" fill="#b3b3b3"/>
<path transform="matrix(.1,0,0,-.1,-.0000038146974,137.74)" stroke-width="9.06927" stroke-linecap="butt" stroke-miterlimit="10" stroke-linejoin="miter" fill="none" stroke="#000000" d="M2575.45 403.652V167.809H2693.38V639.496H2575.45Z"/>
<path transform="matrix(.1,0,0,-.1,-.0000038146974,137.74)" d="M2702.45 399.117V163.273H2820.37V634.961H2702.45" fill="#b3b3b3"/>
<path transform="matrix(.1,0,0,-.1,-.0000038146974,137.74)" stroke-width="9.06927" stroke-linecap="butt" stroke-miterlimit="10" stroke-linejoin="miter" fill="none" stroke="#000000" d="M2702.45 399.117V163.273H2820.37V634.961H2702.45Z"/>
</g>
<g clip-path="url(#clip_2)">
</g>
<use data-text="1" xlink:href="#font_3_2" transform="matrix(5.57904,0,0,-5.57904,293.6488,71.87281)"/>
<path transform="matrix(.8,0,0,-.8,343.7856,157.71521)" stroke-width=".3985" stroke-linecap="butt" stroke-miterlimit="10" stroke-linejoin="miter" fill="none" stroke="#000000" d="M-67.487 105.871H-53.884"/>
<use data-text="&#x221a;" xlink:href="#font_4_2" transform="matrix(5.57904,0,0,-5.57904,289.79603,74.03841)"/>
<path transform="matrix(.8,0,0,-.8,343.7856,157.71521)" stroke-width=".3387" stroke-linecap="butt" stroke-miterlimit="10" stroke-linejoin="miter" fill="none" stroke="#000000" d="M-60.942 104.765H-53.884"/>
<use data-text="N" xlink:href="#font_5_1" transform="matrix(5.57904,0,0,-5.57904,295.032,78.76801)"/>
<use data-text="&#x00c9;" xlink:href="#font_6_250" transform="matrix(7.97008,0,0,-7.97008,303.3536,122.685619)"/>
<use data-text="l" xlink:href="#font_6_72" transform="matrix(7.97008,0,0,-7.97008,308.78123,122.685619)"/>
<use data-text="e" xlink:href="#font_6_50" transform="matrix(7.97008,0,0,-7.97008,310.9969,122.685619)"/>
<use data-text="m" xlink:href="#font_6_75" transform="matrix(7.97008,0,0,-7.97008,314.5356,122.685619)"/>
<use data-text="e" xlink:href="#font_6_50" transform="matrix(7.97008,0,0,-7.97008,321.17469,122.685619)"/>
<use data-text="n" xlink:href="#font_6_77" transform="matrix(7.97008,0,0,-7.97008,324.7134,122.685619)"/>
<use data-text="t" xlink:href="#font_6_105" transform="matrix(7.97008,0,0,-7.97008,328.9216,122.685619)"/>
<use data-text="s" xlink:href="#font_6_98" transform="matrix(7.97008,0,0,-7.97008,332.02198,122.685619)"/>
<use data-text="A" xlink:href="#font_6_27" transform="matrix(7.97008,0,0,-7.97008,185.432,7.3880159)"/>
<use data-text="m" xlink:href="#font_6_75" transform="matrix(7.97008,0,0,-7.97008,191.40958,7.3880159)"/>
<use data-text="p" xlink:href="#font_6_84" transform="matrix(7.97008,0,0,-7.97008,198.04865,7.3880159)"/>
<use data-text="l" xlink:href="#font_6_72" transform="matrix(7.97008,0,0,-7.97008,202.48001,7.3880159)"/>
<use data-text="i" xlink:href="#font_6_66" transform="matrix(7.97008,0,0,-7.97008,204.6957,7.3880159)"/>
<use data-text="t" xlink:href="#font_6_105" transform="matrix(7.97008,0,0,-7.97008,206.91138,7.3880159)"/>
<use data-text="u" xlink:href="#font_6_109" transform="matrix(7.97008,0,0,-7.97008,210.01174,7.3880159)"/>
<use data-text="d" xlink:href="#font_6_47" transform="matrix(7.97008,0,0,-7.97008,214.4431,7.3880159)"/>
<use data-text="e" xlink:href="#font_6_50" transform="matrix(7.97008,0,0,-7.97008,218.87447,7.3880159)"/>
<use data-text="&#x03b8;" xlink:href="#font_7_1" transform="matrix(7.97008,0,0,-7.97008,63.428808,115.062419)"/>
<use data-text="|" xlink:href="#font_8_2" transform="matrix(7.97008,0,0,-7.97008,2.6544038,11.476807)"/>
<use data-text="w" xlink:href="#font_7_4" transform="matrix(7.97008,0,0,-7.97008,4.868,11.476807)"/>
<use data-text="&#x27e9;" xlink:href="#font_8_1" transform="matrix(7.97008,0,0,-7.97008,10.788803,11.476807)"/>
<use data-text="|" xlink:href="#font_8_2" transform="matrix(7.97008,0,0,-7.97008,112.8656,85.85761)"/>
<use data-text="s" xlink:href="#font_7_3" transform="matrix(7.97008,0,0,-7.97008,115.0792,85.85761)"/>
<use data-text="&#x27e9;" xlink:href="#font_8_1" transform="matrix(7.97008,0,0,-7.97008,118.8152,85.85761)"/>
<use data-text="=" xlink:href="#font_9_2" transform="matrix(7.97008,0,0,-7.97008,124.1288,85.85761)"/>
<use data-text="|" xlink:href="#font_8_2" transform="matrix(7.97008,0,0,-7.97008,132.5416,85.85761)"/>
<use data-text="&#x03a8;" xlink:href="#font_9_1" transform="matrix(7.97008,0,0,-7.97008,134.75519,85.85761)"/>
<use data-text="0" xlink:href="#font_3_1" transform="matrix(5.57904,0,0,-5.57904,140.95439,87.05282)"/>
<use data-text="&#x27e9;" xlink:href="#font_8_1" transform="matrix(7.97008,0,0,-7.97008,144.5296,85.85761)"/>
<use data-text="|" xlink:href="#font_8_2" transform="matrix(7.97008,0,0,-7.97008,124.65759,122.59522)"/>
<use data-text="s" xlink:href="#font_7_3" transform="matrix(7.97008,0,0,-7.97008,126.87119,122.59522)"/>
<use data-text="&#x2032;" xlink:href="#font_4_1" transform="matrix(5.57904,0,0,-5.57904,130.6072,119.70243)"/>
<use data-text="&#x27e9;" xlink:href="#font_8_1" transform="matrix(7.97008,0,0,-7.97008,132.84319,122.59522)"/>
<use data-text="0" xlink:href="#font_6_121" transform="matrix(7.97008,0,0,-7.97008,182.7112,129.85443)"/>
<use data-text="N" xlink:href="#font_7_2" transform="matrix(7.97008,0,0,-7.97008,279.76963,130.93683)"/>
<use data-text="|" xlink:href="#font_8_2" transform="matrix(7.97008,0,0,-7.97008,236.22878,131.66562)"/>
<use data-text="w" xlink:href="#font_7_4" transform="matrix(7.97008,0,0,-7.97008,238.44239,131.66562)"/>
<use data-text="&#x27e9;" xlink:href="#font_8_1" transform="matrix(7.97008,0,0,-7.97008,244.36318,131.66562)"/>
</svg>
