<?xml version="1.0" encoding="windows-1252"?><svg xmlns="http://www.w3.org/2000/svg" viewBox="38.5 27.25 891 362" xmlns:latexdraw="http://latexdraw.sourceforge.net/namespaces/latexdraw" version="1.1" baseProfile="full">
    <g>
        <g latexdraw:type="plot" latexdraw:polar="false" latexdraw:eq="x sin" latexdraw:plotstyle="curve" latexdraw:min="1.0" latexdraw:max="900.0" latexdraw:nbpts="50" latexdraw:xscale="0.01" latexdraw:yscale="0.5" latexdraw:x="58.0" latexdraw:y="259.0" id="id835768321" stroke="black" stroke-width="2.0" fill="none">
            <g latexdraw:type="bezierCurve" id="id1325041805">
                <path d="M 58.5 258.56368983906793 C 61.527244897959186 255.97455050197132 64.57714629298175 253.22393306347757 67.6734693877551 250.7178130599873 C 70.76979248252846 248.211693056497 73.69564804634948 245.85300025819848 76.84693877551021 243.71393777484303 C 79.99822950467095 241.5748752914876 82.84498562755772 239.78571956291205 86.0204081632653 238.2641070099698 C 89.19583069897288 236.74249445702753 92.05459993841268 235.64711740130355 95.1938775510204 234.92237317676074 C 98.33315516362813 234.19762895221794 101.32830784858976 233.90408884175076 104.36734693877551 234.02847080430584 C 107.40638602896126 234.15285276686092 110.60201452813523 234.76648523327475 113.54081632653063 235.67327771732596 C 116.47961812492603 236.58007020137717 119.81235703763257 238.10854798794307 122.71428571428572 239.68957601938502 C 125.61621439093888 241.27060405082696 128.96313926676416 243.54668103645986 131.88775510204084 245.6690521581662 C 134.81237093731752 247.79142327987256 138.0828488603262 250.52345252395597 141.06122448979593 253.00380777562998 C 144.03960011926566 255.484163027304 147.19124847508652 258.3453491722698 150.23469387755102 260.9481611777631 C 153.27813928001552 263.5509731832564 156.3001885426796 266.23696602080423 159.40816326530614 268.6944564300397 C 162.5161379879327 271.1519468392751 165.42258087428067 273.4150437826397 168.58163265306126 275.4551730113544 C 171.74068443184186 277.4953022400691 174.58104625796344 279.1614847718706 177.75510204081635 280.5429884182699 C 180.92915782366927 281.92449206466915 183.8043473576381 282.8769070316536 186.92857142857144 283.44065422298263 C 190.05279549950478 284.00440141431164 193.08466897487767 284.13330885371 196.10204081632654 283.85358169498363 C 199.1194126577754 283.5738545362573 202.34926128584468 282.7827944035368 205.27551020408163 281.7397909138932 C 208.20175912231858 280.69678742424964 211.54645422016674 279.00901736027765 214.44897959183672 277.3141786223757 C 217.3515049635067 275.6193398844738 220.68928191780844 273.2325402516393 223.62244897959178 271.0266709314972 C 226.55561604137512 268.82080161135514 229.80568647557521 266.03937809612154 232.7959183673469 263.51648196516004 C 235.78615025911859 260.99358583419854 238.91337789824578 258.14353368310776 241.969387755102 255.54712869964126 C 245.0253976119582 252.95072371617476 248.02368143866238 250.32784595464835 251.14285714285708 247.92880865932378 C 254.26203284705178 245.5297713639992 257.15076786554414 243.36845387437177 260.3163265306122 241.43603187419032 C 263.4818851956802 239.50360987400887 266.3195203863346 237.9643935742498 269.48979591836724 236.7288809760958 C 272.66007145039987 235.4933683779418 275.5564007909434 234.6878178549475 278.66326530612236 234.28590445918638 C 281.7701298213013 233.88399106342527 284.8403708791383 233.92355979326203 287.8367346938775 234.35546545409258 C 290.8330985086167 234.78737111492313 294.0938641307443 235.75522065599623 297.01020408163254 236.9304921014064 C 299.9265440325208 238.10576354681658 303.2785880753226 239.94549504603572 306.1836734693876 241.74919650625554 C 309.0887588634526 243.55289796647537 312.41451906113474 246.03927772956706 315.3571428571427 248.32168918206995 C 318.2997666531507 250.60410063457283 321.5282315390784 253.42312229251849 324.53061224489784 255.97978324874126 C 327.5329929507173 258.536444204964 330.63559259343765 261.3646959959815 333.70408163265296 263.9449250837122 C 336.77257067186827 266.52515417144286 339.74773950164206 269.0764905849555 342.8775510204081 271.4073453141062 C 346.0073625391741 273.7382000432569 348.88041847450677 275.79206483937077 352.0510204081632 277.608383331574 C 355.2216223418196 279.4247018237772 358.060571798926 280.83315679065373 361.2244897959183 281.9176158780459 C 364.38840779291064 283.0020749654381 367.3103806715915 283.65671026375463 370.39795918367344 283.8969484902929 C 373.4855376957554 284.1371867168312 376.59480709232713 283.92575180068485 379.57142857142856 283.3451540010727 C 382.54805005053 282.7645562014605 385.8358134900521 281.62184242104024 388.7448979591837 280.31833012800917 C 391.65398242831526 279.0148178349781 395.00898205202253 277.03147314390554 397.91836734693874 275.1241963468231 C 400.82775264185494 273.2169195497407 404.1389994224441 270.6424194287795 407.0918367346939 268.2908098524487 C 410.0446740469437 265.93920027611796 413.25056336576597 263.0942704975569 416.26530612244903 260.5128810732526 C 419.2800488791321 257.9314916489482 422.35796507696796 255.13535491891076 425.43877551020415 252.58114652596007 C 428.51958594344035 250.02693813300937 431.47249309066706 247.55506064477493 434.6122448979593 245.3019792599479 C 437.7519967052515 243.04889787512087 440.61175610027993 241.10767776808365 443.78571428571445 239.415409626739 C 446.95967247114896 237.72314148539436 449.80430216064707 236.44913728161455 452.9591836734695 235.5198907234708 C 456.11406518629195 234.59064416532706 459.0657886666296 234.09109664017313 462.13265306122463 234.01145716756582 C 465.19951745581966 233.9318176949585 468.34745830388505 234.31785904762052 471.30612244897975 235.04346257405047 C 474.26478659407445 235.76906610048042 477.5751882833667 237.08339069369674 480.47959183673487 238.51098899066113 C 483.38399539010305 239.93858728762552 486.73785472359134 242.0563178454776 489.65306122449005 244.06151329226228 C 492.56826772538875 246.06670873904696 495.86285440894386 248.71765488672136 498.8265306122451 251.13074614465648 C 501.79020681554636 253.5438374025916 504.97275510204105 256.4031462277368 508.0000000000002 259.0000000000002" stroke="black" stroke-width="2.0" fill="none" latexdraw:rotationAngle="0.0"/>
            </g>
        </g>
        <g latexdraw:type="square" id="id1837207082">
            <rect x="401.0" y="250.0" width="26.0" height="26.0" latexdraw:borderPos="outer" stroke="black" stroke-width="2.0" fill="none" stroke-linecap="round" stroke-dasharray="1, 7.291666666666667"/>
        </g>
        <g latexdraw:type="square" id="id2031521209">
            <rect x="588.5" y="48.250000000000085" width="320.0000000000001" height="320.0000000000001" latexdraw:borderPos="outer" stroke="black" stroke-width="2.0" fill="none" stroke-linecap="round" stroke-dasharray="1, 7.291666666666667"/>
        </g>
        <g latexdraw:type="joinedLines" id="id664017604">
            <polyline points="428.0,250.0 588.0,49.0 " stroke="black" stroke-width="2.0" fill="none" stroke-linecap="round" stroke-dasharray="1, 7.291666666666667" latexdraw:rotationAngle="0.0"/>
        </g>
        <g latexdraw:type="joinedLines" id="id1602660699">
            <polyline points="428.0,277.0 587.0,369.0 " stroke="black" stroke-width="2.0" fill="none" stroke-linecap="round" stroke-dasharray="1, 7.291666666666667" latexdraw:rotationAngle="0.0"/>
        </g>
        <g latexdraw:type="joinedLines" id="id1663416586">
            <polyline points="623.0,312.0 868.0,312.0 " stroke="black" stroke-width="2.0" fill="none" latexdraw:rotationAngle="0.0" marker-end="url(#arrow1-1663416586)"/>
        </g>
        <g latexdraw:type="joinedLines" id="id678543144">
            <polyline points="638.0,329.0 638.0,78.0 " stroke="black" stroke-width="2.0" fill="none" latexdraw:rotationAngle="0.0" marker-end="url(#arrow1-678543144)"/>
        </g>
        <g latexdraw:type="text" id="id1533620937" fill="black" latexdraw:position="bl">
            <text x="624.0" y="330.0">0</text>
        </g>
        <g latexdraw:type="bezierCurve" id="id345067358">
            <path d="M 656.0 277.0 C 754.0 241.0 793.0 212.0 834.0 167.0" stroke="black" stroke-width="2.0" fill="none" latexdraw:rotationAngle="0.0"/>
        </g>
        <g latexdraw:type="joinedLines" id="id1145816482">
            <polyline points="705.0,259.0 706.0,312.0 " stroke="lime" stroke-width="2.0" fill="none" stroke-dasharray="8.819444444444445, 5.291666666666667" latexdraw:rotationAngle="0.0"/>
        </g>
        <g latexdraw:type="joinedLines" id="id943331512">
            <polyline points="765.0,260.0 638.0,261.0 " stroke="lime" stroke-width="2.0" fill="none" stroke-dasharray="8.819444444444445, 5.291666666666667" latexdraw:rotationAngle="0.0"/>
        </g>
        <g latexdraw:type="joinedLines" id="id687694771">
            <polyline points="794.0,206.0 793.0,310.0 " stroke="lime" stroke-width="2.0" fill="none" stroke-dasharray="8.819444444444445, 5.291666666666667" latexdraw:rotationAngle="0.0"/>
        </g>
        <g latexdraw:type="joinedLines" id="id1668099902">
            <polyline points="876.0,205.0 638.0,207.0 " stroke="lime" stroke-width="2.0" fill="none" stroke-dasharray="8.819444444444445, 5.291666666666667" latexdraw:rotationAngle="0.0"/>
        </g>
        <g latexdraw:type="text" id="id512301753" fill="black" latexdraw:position="bl">
            <text x="705.0" y="322.0">x</text>
        </g>
        <g latexdraw:type="text" id="id734683853" fill="black" latexdraw:position="bl">
            <text x="617.0" y="267.0">y</text>
        </g>
        <g latexdraw:type="text" id="id736413825" fill="black" latexdraw:position="bl">
            <text x="586.0" y="217.0">y+dy</text>
        </g>
        <g latexdraw:type="text" id="id1660733999" fill="black" latexdraw:position="bl">
            <text x="788.0" y="326.0">x+dx</text>
        </g>
        <g latexdraw:type="joinedLines" id="id1559730519">
            <polyline points="700.0,261.0 642.0,289.0 " stroke="red" stroke-width="2.0" fill="none" latexdraw:rotationAngle="0.0" marker-end="url(#arrow1-1559730519)"/>
        </g>
        <g latexdraw:type="joinedLines" id="id1552464321">
            <polyline points="794.0,206.0 856.0,160.0 " stroke="red" stroke-width="2.0" fill="none" latexdraw:rotationAngle="0.0" marker-end="url(#arrow1-1552464321)"/>
        </g>
        <g latexdraw:type="joinedLines" id="id1018313967">
            <polyline points="697.0,261.0 747.0,242.0 " stroke="red" stroke-width="2.0" fill="none" stroke-dasharray="8.819444444444445, 5.291666666666667" latexdraw:rotationAngle="0.0"/>
        </g>
        <g latexdraw:type="arc" id="id264995739">
            <path d="M 745.2219219164377 260.6920997883031 A 10.0 10.0 0.0 1 1 737.99503719021 245.0496280979001" latexdraw:borderPos="outer" stroke="#999999" stroke-width="2.0" fill="none" latexdraw:rotationAngle="0.0"/>
        </g>
        <g latexdraw:type="arc" id="id26900236">
            <path d="M 823.2219219164377 203.6920997883031 A 10.0 10.0 0.0 1 1 815.99503719021 188.0496280979001" latexdraw:borderPos="outer" stroke="#999999" stroke-width="2.0" fill="none" latexdraw:rotationAngle="0.0"/>
        </g>
        <g latexdraw:type="text" id="id517572733" fill="black" latexdraw:position="bl">
            <text x="747.0" y="260.0">a(x,t)</text>
        </g>
        <g latexdraw:type="text" id="id198189564" fill="black" latexdraw:position="bl">
            <text x="825.0" y="200.0">a(x+dx,t)</text>
        </g>
        <g latexdraw:type="text" id="id1407749098" fill="black" latexdraw:position="bl">
            <text x="650.0" y="300.0">TA</text>
        </g>
        <g latexdraw:type="text" id="id230057330" fill="black" latexdraw:position="bl">
            <text x="847.0" y="158.0">TB</text>
        </g>
    </g>
    <defs>
        <marker overflow="visible" markerUnits="userSpaceOnUse" orient="auto" id="arrow1-1663416586">
            <path d="M 0.0 0.0 L -9.304166666666667 -3.322916666666667 L -9.304166666666667 0.0 L -9.304166666666667 3.322916666666667 z" fill="black" stroke="black" latexdraw:arrSizeNum="2" latexdraw:tbarSizeNum="5"/>
        </marker>
        <marker overflow="visible" markerUnits="userSpaceOnUse" orient="270" id="arrow1-678543144">
            <path d="M 0.0 0.0 L -9.304166666666667 -3.322916666666667 L -9.304166666666667 0.0 L -9.304166666666667 3.322916666666667 z" fill="black" stroke="black" latexdraw:arrSizeNum="2" latexdraw:tbarSizeNum="5"/>
        </marker>
        <marker overflow="visible" markerUnits="userSpaceOnUse" orient="154.231" id="arrow1-1559730519">
            <path d="M 0.0 0.0 L -9.304166666666667 -3.322916666666667 L -9.304166666666667 0.0 L -9.304166666666667 3.322916666666667 z" fill="red" stroke="red" latexdraw:arrSizeNum="2" latexdraw:tbarSizeNum="5"/>
        </marker>
        <marker overflow="visible" markerUnits="userSpaceOnUse" orient="323.427" id="arrow1-1552464321">
            <path d="M 0.0 0.0 L -9.304166666666667 -3.322916666666667 L -9.304166666666667 0.0 L -9.304166666666667 3.322916666666667 z" fill="red" stroke="red" latexdraw:arrSizeNum="2" latexdraw:tbarSizeNum="5"/>
        </marker>
    </defs>
    <metadata>
        <latexdraw:metadata>
            <latexdraw:centreHoriz>false</latexdraw:centreHoriz>
            <latexdraw:positionVert/>
            <latexdraw:zoom>1.0</latexdraw:zoom>
            <latexdraw:vpx>0.5</latexdraw:vpx>
            <latexdraw:vpy>0.382</latexdraw:vpy>
        </latexdraw:metadata>
    </metadata>
</svg>
